<?xml version="1.0" encoding="UTF-8" standalone="no"?>
<!DOCTYPE svg PUBLIC "-//W3C//DTD SVG 1.1//EN"
 "http://www.w3.org/Graphics/SVG/1.1/DTD/svg11.dtd">
<!-- Generated by graphviz version 2.43.0 (0)
 -->
<!-- Title: Model Pages: 1 -->
<svg width="4449pt" height="98pt"
 viewBox="0.00 0.00 4448.84 98.00" xmlns="http://www.w3.org/2000/svg" xmlns:xlink="http://www.w3.org/1999/xlink">
<g id="graph0" class="graph" transform="scale(1 1) rotate(0) translate(4 94)">
<title>Model</title>
<polygon fill="white" stroke="transparent" points="-4,4 -4,-94 4444.84,-94 4444.84,4 -4,4"/>
<!-- conv1 -->
<g id="node1" class="node">
<title>conv1</title>
<polygon fill="White" stroke="black" points="144,-63 90,-63 90,-27 144,-27 144,-63"/>
<text text-anchor="middle" x="117" y="-41.4" font-family="Times,serif" font-size="12.00">conv1</text>
</g>
<!-- relu1 -->
<g id="node2" class="node">
<title>relu1</title>
<polygon fill="LightSalmon" stroke="black" points="234,-63 180,-63 180,-27 234,-27 234,-63"/>
<text text-anchor="middle" x="207" y="-41.4" font-family="Times,serif" font-size="12.00">relu1</text>
</g>
<!-- conv1&#45;&gt;relu1 -->
<g id="edge2" class="edge">
<title>conv1&#45;&gt;relu1</title>
<path fill="none" stroke="black" d="M144.4,-45C152.39,-45 161.31,-45 169.82,-45"/>
<polygon fill="black" stroke="black" points="169.92,-48.5 179.92,-45 169.92,-41.5 169.92,-48.5"/>
</g>
<!-- conv2 -->
<g id="node3" class="node">
<title>conv2</title>
<polygon fill="White" stroke="black" points="324,-88 270,-88 270,-52 324,-52 324,-88"/>
<text text-anchor="middle" x="297" y="-66.4" font-family="Times,serif" font-size="12.00">conv2</text>
</g>
<!-- relu1&#45;&gt;conv2 -->
<g id="edge3" class="edge">
<title>relu1&#45;&gt;conv2</title>
<path fill="none" stroke="black" d="M234.4,-52.5C242.48,-54.8 251.51,-57.36 260.1,-59.8"/>
<polygon fill="black" stroke="black" points="259.34,-63.22 269.92,-62.59 261.26,-56.49 259.34,-63.22"/>
</g>
<!-- conv4 -->
<g id="node50" class="node">
<title>conv4</title>
<polygon fill="White" stroke="black" points="414,-36 360,-36 360,0 414,0 414,-36"/>
<text text-anchor="middle" x="387" y="-14.4" font-family="Times,serif" font-size="12.00">conv4</text>
</g>
<!-- relu1&#45;&gt;conv4 -->
<g id="edge4" class="edge">
<title>relu1&#45;&gt;conv4</title>
<path fill="none" stroke="black" d="M234.26,-41.02C264.85,-36.38 315.55,-28.69 349.84,-23.48"/>
<polygon fill="black" stroke="black" points="350.56,-26.92 359.92,-21.96 349.51,-20 350.56,-26.92"/>
</g>
<!-- relu2 -->
<g id="node4" class="node">
<title>relu2</title>
<polygon fill="LightSalmon" stroke="black" points="414,-90 360,-90 360,-54 414,-54 414,-90"/>
<text text-anchor="middle" x="387" y="-68.4" font-family="Times,serif" font-size="12.00">relu2</text>
</g>
<!-- conv2&#45;&gt;relu2 -->
<g id="edge5" class="edge">
<title>conv2&#45;&gt;relu2</title>
<path fill="none" stroke="black" d="M324.4,-70.6C332.39,-70.78 341.31,-70.98 349.82,-71.18"/>
<polygon fill="black" stroke="black" points="349.84,-74.68 359.92,-71.41 350,-67.68 349.84,-74.68"/>
</g>
<!-- conv3 -->
<g id="node5" class="node">
<title>conv3</title>
<polygon fill="White" stroke="black" points="504,-89 450,-89 450,-53 504,-53 504,-89"/>
<text text-anchor="middle" x="477" y="-67.4" font-family="Times,serif" font-size="12.00">conv3</text>
</g>
<!-- relu2&#45;&gt;conv3 -->
<g id="edge6" class="edge">
<title>relu2&#45;&gt;conv3</title>
<path fill="none" stroke="black" d="M414.4,-71.7C422.39,-71.61 431.31,-71.51 439.82,-71.41"/>
<polygon fill="black" stroke="black" points="439.96,-74.91 449.92,-71.3 439.88,-67.91 439.96,-74.91"/>
</g>
<!-- relu3 -->
<g id="node6" class="node">
<title>relu3</title>
<polygon fill="LightSalmon" stroke="black" points="594,-88 540,-88 540,-52 594,-52 594,-88"/>
<text text-anchor="middle" x="567" y="-66.4" font-family="Times,serif" font-size="12.00">relu3</text>
</g>
<!-- conv3&#45;&gt;relu3 -->
<g id="edge7" class="edge">
<title>conv3&#45;&gt;relu3</title>
<path fill="none" stroke="black" d="M504.4,-70.7C512.39,-70.61 521.31,-70.51 529.82,-70.41"/>
<polygon fill="black" stroke="black" points="529.96,-73.91 539.92,-70.3 529.88,-66.91 529.96,-73.91"/>
</g>
<!-- sum1 -->
<g id="node7" class="node">
<title>sum1</title>
<polygon fill="Beige" stroke="black" points="665.72,-63 629.78,-45 665.72,-27 701.66,-45 665.72,-63"/>
<text text-anchor="middle" x="665.72" y="-41.4" font-family="Times,serif" font-size="12.00">sum1</text>
</g>
<!-- relu3&#45;&gt;sum1 -->
<g id="edge8" class="edge">
<title>relu3&#45;&gt;sum1</title>
<path fill="none" stroke="black" d="M594.17,-63.23C605.71,-60.25 619.4,-56.71 631.64,-53.55"/>
<polygon fill="black" stroke="black" points="632.69,-56.89 641.5,-51 630.94,-50.12 632.69,-56.89"/>
</g>
<!-- conv5 -->
<g id="node8" class="node">
<title>conv5</title>
<polygon fill="White" stroke="black" points="791.44,-86 737.44,-86 737.44,-50 791.44,-50 791.44,-86"/>
<text text-anchor="middle" x="764.44" y="-64.4" font-family="Times,serif" font-size="12.00">conv5</text>
</g>
<!-- sum1&#45;&gt;conv5 -->
<g id="edge9" class="edge">
<title>sum1&#45;&gt;conv5</title>
<path fill="none" stroke="black" d="M690.63,-50.69C701.73,-53.33 715.16,-56.52 727.45,-59.44"/>
<polygon fill="black" stroke="black" points="726.89,-62.91 737.43,-61.82 728.51,-56.1 726.89,-62.91"/>
</g>
<!-- sum2 -->
<g id="node12" class="node">
<title>sum2</title>
<polygon fill="Beige" stroke="black" points="1133.16,-63 1097.22,-45 1133.16,-27 1169.11,-45 1133.16,-63"/>
<text text-anchor="middle" x="1133.16" y="-41.4" font-family="Times,serif" font-size="12.00">sum2</text>
</g>
<!-- sum1&#45;&gt;sum2 -->
<g id="edge10" class="edge">
<title>sum1&#45;&gt;sum2</title>
<path fill="none" stroke="black" d="M691.67,-39.95C727.36,-33.18 795.14,-22 853.44,-22 853.44,-22 853.44,-22 945.44,-22 998.73,-22 1059.94,-31.34 1097.33,-38.12"/>
<polygon fill="black" stroke="black" points="1096.75,-41.57 1107.22,-39.95 1098.02,-34.69 1096.75,-41.57"/>
</g>
<!-- relu4 -->
<g id="node9" class="node">
<title>relu4</title>
<polygon fill="LightSalmon" stroke="black" points="881.44,-86 827.44,-86 827.44,-50 881.44,-50 881.44,-86"/>
<text text-anchor="middle" x="854.44" y="-64.4" font-family="Times,serif" font-size="12.00">relu4</text>
</g>
<!-- conv5&#45;&gt;relu4 -->
<g id="edge11" class="edge">
<title>conv5&#45;&gt;relu4</title>
<path fill="none" stroke="black" d="M791.84,-68C799.84,-68 808.75,-68 817.27,-68"/>
<polygon fill="black" stroke="black" points="817.36,-71.5 827.36,-68 817.36,-64.5 817.36,-71.5"/>
</g>
<!-- conv6 -->
<g id="node10" class="node">
<title>conv6</title>
<polygon fill="White" stroke="black" points="971.44,-86 917.44,-86 917.44,-50 971.44,-50 971.44,-86"/>
<text text-anchor="middle" x="944.44" y="-64.4" font-family="Times,serif" font-size="12.00">conv6</text>
</g>
<!-- relu4&#45;&gt;conv6 -->
<g id="edge12" class="edge">
<title>relu4&#45;&gt;conv6</title>
<path fill="none" stroke="black" d="M881.84,-68C889.84,-68 898.75,-68 907.27,-68"/>
<polygon fill="black" stroke="black" points="907.36,-71.5 917.36,-68 907.36,-64.5 907.36,-71.5"/>
</g>
<!-- relu5 -->
<g id="node11" class="node">
<title>relu5</title>
<polygon fill="LightSalmon" stroke="black" points="1061.44,-86 1007.44,-86 1007.44,-50 1061.44,-50 1061.44,-86"/>
<text text-anchor="middle" x="1034.44" y="-64.4" font-family="Times,serif" font-size="12.00">relu5</text>
</g>
<!-- conv6&#45;&gt;relu5 -->
<g id="edge13" class="edge">
<title>conv6&#45;&gt;relu5</title>
<path fill="none" stroke="black" d="M971.84,-68C979.84,-68 988.75,-68 997.27,-68"/>
<polygon fill="black" stroke="black" points="997.36,-71.5 1007.36,-68 997.36,-64.5 997.36,-71.5"/>
</g>
<!-- relu5&#45;&gt;sum2 -->
<g id="edge14" class="edge">
<title>relu5&#45;&gt;sum2</title>
<path fill="none" stroke="black" d="M1061.62,-61.78C1072.98,-59.07 1086.43,-55.87 1098.52,-53"/>
<polygon fill="black" stroke="black" points="1099.37,-56.4 1108.29,-50.68 1097.75,-49.59 1099.37,-56.4"/>
</g>
<!-- conv7 -->
<g id="node13" class="node">
<title>conv7</title>
<polygon fill="White" stroke="black" points="1258.88,-88 1204.88,-88 1204.88,-52 1258.88,-52 1258.88,-88"/>
<text text-anchor="middle" x="1231.88" y="-66.4" font-family="Times,serif" font-size="12.00">conv7</text>
</g>
<!-- sum2&#45;&gt;conv7 -->
<g id="edge15" class="edge">
<title>sum2&#45;&gt;conv7</title>
<path fill="none" stroke="black" d="M1157.58,-51.05C1168.78,-53.95 1182.45,-57.48 1194.93,-60.71"/>
<polygon fill="black" stroke="black" points="1194.06,-64.1 1204.62,-63.21 1195.81,-57.32 1194.06,-64.1"/>
</g>
<!-- conv9 -->
<g id="node49" class="node">
<title>conv9</title>
<polygon fill="White" stroke="black" points="1348.88,-36 1294.88,-36 1294.88,0 1348.88,0 1348.88,-36"/>
<text text-anchor="middle" x="1321.88" y="-14.4" font-family="Times,serif" font-size="12.00">conv9</text>
</g>
<!-- sum2&#45;&gt;conv9 -->
<g id="edge16" class="edge">
<title>sum2&#45;&gt;conv9</title>
<path fill="none" stroke="black" d="M1161.31,-41.07C1193.81,-36.37 1248.36,-28.49 1284.48,-23.26"/>
<polygon fill="black" stroke="black" points="1285.21,-26.7 1294.61,-21.8 1284.21,-19.77 1285.21,-26.7"/>
</g>
<!-- relu6 -->
<g id="node14" class="node">
<title>relu6</title>
<polygon fill="LightSalmon" stroke="black" points="1348.88,-90 1294.88,-90 1294.88,-54 1348.88,-54 1348.88,-90"/>
<text text-anchor="middle" x="1321.88" y="-68.4" font-family="Times,serif" font-size="12.00">relu6</text>
</g>
<!-- conv7&#45;&gt;relu6 -->
<g id="edge17" class="edge">
<title>conv7&#45;&gt;relu6</title>
<path fill="none" stroke="black" d="M1259.29,-70.6C1267.28,-70.78 1276.19,-70.98 1284.71,-71.18"/>
<polygon fill="black" stroke="black" points="1284.73,-74.68 1294.8,-71.41 1284.88,-67.68 1284.73,-74.68"/>
</g>
<!-- conv8 -->
<g id="node15" class="node">
<title>conv8</title>
<polygon fill="White" stroke="black" points="1438.88,-89 1384.88,-89 1384.88,-53 1438.88,-53 1438.88,-89"/>
<text text-anchor="middle" x="1411.88" y="-67.4" font-family="Times,serif" font-size="12.00">conv8</text>
</g>
<!-- relu6&#45;&gt;conv8 -->
<g id="edge18" class="edge">
<title>relu6&#45;&gt;conv8</title>
<path fill="none" stroke="black" d="M1349.29,-71.7C1357.28,-71.61 1366.19,-71.51 1374.71,-71.41"/>
<polygon fill="black" stroke="black" points="1374.84,-74.91 1384.8,-71.3 1374.76,-67.91 1374.84,-74.91"/>
</g>
<!-- relu7 -->
<g id="node16" class="node">
<title>relu7</title>
<polygon fill="LightSalmon" stroke="black" points="1528.88,-88 1474.88,-88 1474.88,-52 1528.88,-52 1528.88,-88"/>
<text text-anchor="middle" x="1501.88" y="-66.4" font-family="Times,serif" font-size="12.00">relu7</text>
</g>
<!-- conv8&#45;&gt;relu7 -->
<g id="edge19" class="edge">
<title>conv8&#45;&gt;relu7</title>
<path fill="none" stroke="black" d="M1439.29,-70.7C1447.28,-70.61 1456.19,-70.51 1464.71,-70.41"/>
<polygon fill="black" stroke="black" points="1464.84,-73.91 1474.8,-70.3 1464.76,-66.91 1464.84,-73.91"/>
</g>
<!-- sum3 -->
<g id="node17" class="node">
<title>sum3</title>
<polygon fill="Beige" stroke="black" points="1600.6,-63 1564.66,-45 1600.6,-27 1636.55,-45 1600.6,-63"/>
<text text-anchor="middle" x="1600.6" y="-41.4" font-family="Times,serif" font-size="12.00">sum3</text>
</g>
<!-- relu7&#45;&gt;sum3 -->
<g id="edge20" class="edge">
<title>relu7&#45;&gt;sum3</title>
<path fill="none" stroke="black" d="M1529.06,-63.23C1540.6,-60.25 1554.29,-56.71 1566.52,-53.55"/>
<polygon fill="black" stroke="black" points="1567.57,-56.89 1576.38,-51 1565.82,-50.12 1567.57,-56.89"/>
</g>
<!-- conv10 -->
<g id="node18" class="node">
<title>conv10</title>
<polygon fill="White" stroke="black" points="1726.33,-86 1672.33,-86 1672.33,-50 1726.33,-50 1726.33,-86"/>
<text text-anchor="middle" x="1699.33" y="-64.4" font-family="Times,serif" font-size="12.00">conv10</text>
</g>
<!-- sum3&#45;&gt;conv10 -->
<g id="edge21" class="edge">
<title>sum3&#45;&gt;conv10</title>
<path fill="none" stroke="black" d="M1625.51,-50.69C1636.61,-53.33 1650.05,-56.52 1662.34,-59.44"/>
<polygon fill="black" stroke="black" points="1661.78,-62.91 1672.32,-61.82 1663.4,-56.1 1661.78,-62.91"/>
</g>
<!-- sum4 -->
<g id="node22" class="node">
<title>sum4</title>
<polygon fill="Beige" stroke="black" points="2068.05,-63 2032.1,-45 2068.05,-27 2103.99,-45 2068.05,-63"/>
<text text-anchor="middle" x="2068.05" y="-41.4" font-family="Times,serif" font-size="12.00">sum4</text>
</g>
<!-- sum3&#45;&gt;sum4 -->
<g id="edge22" class="edge">
<title>sum3&#45;&gt;sum4</title>
<path fill="none" stroke="black" d="M1626.55,-39.95C1662.25,-33.18 1730.02,-22 1788.33,-22 1788.33,-22 1788.33,-22 1880.33,-22 1933.62,-22 1994.83,-31.34 2032.21,-38.12"/>
<polygon fill="black" stroke="black" points="2031.63,-41.57 2042.1,-39.95 2032.91,-34.69 2031.63,-41.57"/>
</g>
<!-- relu8 -->
<g id="node19" class="node">
<title>relu8</title>
<polygon fill="LightSalmon" stroke="black" points="1816.33,-86 1762.33,-86 1762.33,-50 1816.33,-50 1816.33,-86"/>
<text text-anchor="middle" x="1789.33" y="-64.4" font-family="Times,serif" font-size="12.00">relu8</text>
</g>
<!-- conv10&#45;&gt;relu8 -->
<g id="edge23" class="edge">
<title>conv10&#45;&gt;relu8</title>
<path fill="none" stroke="black" d="M1726.73,-68C1734.72,-68 1743.64,-68 1752.15,-68"/>
<polygon fill="black" stroke="black" points="1752.24,-71.5 1762.24,-68 1752.24,-64.5 1752.24,-71.5"/>
</g>
<!-- conv11 -->
<g id="node20" class="node">
<title>conv11</title>
<polygon fill="White" stroke="black" points="1906.33,-86 1852.33,-86 1852.33,-50 1906.33,-50 1906.33,-86"/>
<text text-anchor="middle" x="1879.33" y="-64.4" font-family="Times,serif" font-size="12.00">conv11</text>
</g>
<!-- relu8&#45;&gt;conv11 -->
<g id="edge24" class="edge">
<title>relu8&#45;&gt;conv11</title>
<path fill="none" stroke="black" d="M1816.73,-68C1824.72,-68 1833.64,-68 1842.15,-68"/>
<polygon fill="black" stroke="black" points="1842.24,-71.5 1852.24,-68 1842.24,-64.5 1842.24,-71.5"/>
</g>
<!-- relu9 -->
<g id="node21" class="node">
<title>relu9</title>
<polygon fill="LightSalmon" stroke="black" points="1996.33,-86 1942.33,-86 1942.33,-50 1996.33,-50 1996.33,-86"/>
<text text-anchor="middle" x="1969.33" y="-64.4" font-family="Times,serif" font-size="12.00">relu9</text>
</g>
<!-- conv11&#45;&gt;relu9 -->
<g id="edge25" class="edge">
<title>conv11&#45;&gt;relu9</title>
<path fill="none" stroke="black" d="M1906.73,-68C1914.72,-68 1923.64,-68 1932.15,-68"/>
<polygon fill="black" stroke="black" points="1932.24,-71.5 1942.24,-68 1932.24,-64.5 1932.24,-71.5"/>
</g>
<!-- relu9&#45;&gt;sum4 -->
<g id="edge26" class="edge">
<title>relu9&#45;&gt;sum4</title>
<path fill="none" stroke="black" d="M1996.5,-61.78C2007.86,-59.07 2021.31,-55.87 2033.41,-53"/>
<polygon fill="black" stroke="black" points="2034.25,-56.4 2043.17,-50.68 2032.63,-49.59 2034.25,-56.4"/>
</g>
<!-- conv12 -->
<g id="node23" class="node">
<title>conv12</title>
<polygon fill="White" stroke="black" points="2193.77,-88 2139.77,-88 2139.77,-52 2193.77,-52 2193.77,-88"/>
<text text-anchor="middle" x="2166.77" y="-66.4" font-family="Times,serif" font-size="12.00">conv12</text>
</g>
<!-- sum4&#45;&gt;conv12 -->
<g id="edge27" class="edge">
<title>sum4&#45;&gt;conv12</title>
<path fill="none" stroke="black" d="M2092.46,-51.05C2103.67,-53.95 2117.33,-57.48 2129.81,-60.71"/>
<polygon fill="black" stroke="black" points="2128.94,-64.1 2139.5,-63.21 2130.7,-57.32 2128.94,-64.1"/>
</g>
<!-- conv14 -->
<g id="node48" class="node">
<title>conv14</title>
<polygon fill="White" stroke="black" points="2283.77,-36 2229.77,-36 2229.77,0 2283.77,0 2283.77,-36"/>
<text text-anchor="middle" x="2256.77" y="-14.4" font-family="Times,serif" font-size="12.00">conv14</text>
</g>
<!-- sum4&#45;&gt;conv14 -->
<g id="edge28" class="edge">
<title>sum4&#45;&gt;conv14</title>
<path fill="none" stroke="black" d="M2096.2,-41.07C2128.69,-36.37 2183.24,-28.49 2219.37,-23.26"/>
<polygon fill="black" stroke="black" points="2220.09,-26.7 2229.49,-21.8 2219.09,-19.77 2220.09,-26.7"/>
</g>
<!-- relu10 -->
<g id="node24" class="node">
<title>relu10</title>
<polygon fill="LightSalmon" stroke="black" points="2283.77,-90 2229.77,-90 2229.77,-54 2283.77,-54 2283.77,-90"/>
<text text-anchor="middle" x="2256.77" y="-68.4" font-family="Times,serif" font-size="12.00">relu10</text>
</g>
<!-- conv12&#45;&gt;relu10 -->
<g id="edge29" class="edge">
<title>conv12&#45;&gt;relu10</title>
<path fill="none" stroke="black" d="M2194.17,-70.6C2202.16,-70.78 2211.08,-70.98 2219.59,-71.18"/>
<polygon fill="black" stroke="black" points="2219.61,-74.68 2229.69,-71.41 2219.77,-67.68 2219.61,-74.68"/>
</g>
<!-- conv13 -->
<g id="node25" class="node">
<title>conv13</title>
<polygon fill="White" stroke="black" points="2373.77,-89 2319.77,-89 2319.77,-53 2373.77,-53 2373.77,-89"/>
<text text-anchor="middle" x="2346.77" y="-67.4" font-family="Times,serif" font-size="12.00">conv13</text>
</g>
<!-- relu10&#45;&gt;conv13 -->
<g id="edge30" class="edge">
<title>relu10&#45;&gt;conv13</title>
<path fill="none" stroke="black" d="M2284.17,-71.7C2292.16,-71.61 2301.08,-71.51 2309.59,-71.41"/>
<polygon fill="black" stroke="black" points="2309.73,-74.91 2319.69,-71.3 2309.65,-67.91 2309.73,-74.91"/>
</g>
<!-- relu11 -->
<g id="node26" class="node">
<title>relu11</title>
<polygon fill="LightSalmon" stroke="black" points="2463.77,-88 2409.77,-88 2409.77,-52 2463.77,-52 2463.77,-88"/>
<text text-anchor="middle" x="2436.77" y="-66.4" font-family="Times,serif" font-size="12.00">relu11</text>
</g>
<!-- conv13&#45;&gt;relu11 -->
<g id="edge31" class="edge">
<title>conv13&#45;&gt;relu11</title>
<path fill="none" stroke="black" d="M2374.17,-70.7C2382.16,-70.61 2391.08,-70.51 2399.59,-70.41"/>
<polygon fill="black" stroke="black" points="2399.73,-73.91 2409.69,-70.3 2399.65,-66.91 2399.73,-73.91"/>
</g>
<!-- sum5 -->
<g id="node27" class="node">
<title>sum5</title>
<polygon fill="Beige" stroke="black" points="2535.49,-63 2499.55,-45 2535.49,-27 2571.43,-45 2535.49,-63"/>
<text text-anchor="middle" x="2535.49" y="-41.4" font-family="Times,serif" font-size="12.00">sum5</text>
</g>
<!-- relu11&#45;&gt;sum5 -->
<g id="edge32" class="edge">
<title>relu11&#45;&gt;sum5</title>
<path fill="none" stroke="black" d="M2463.94,-63.23C2475.48,-60.25 2489.17,-56.71 2501.41,-53.55"/>
<polygon fill="black" stroke="black" points="2502.46,-56.89 2511.26,-51 2500.71,-50.12 2502.46,-56.89"/>
</g>
<!-- conv15 -->
<g id="node28" class="node">
<title>conv15</title>
<polygon fill="White" stroke="black" points="2661.21,-86 2607.21,-86 2607.21,-50 2661.21,-50 2661.21,-86"/>
<text text-anchor="middle" x="2634.21" y="-64.4" font-family="Times,serif" font-size="12.00">conv15</text>
</g>
<!-- sum5&#45;&gt;conv15 -->
<g id="edge33" class="edge">
<title>sum5&#45;&gt;conv15</title>
<path fill="none" stroke="black" d="M2560.4,-50.69C2571.5,-53.33 2584.93,-56.52 2597.22,-59.44"/>
<polygon fill="black" stroke="black" points="2596.66,-62.91 2607.2,-61.82 2598.28,-56.1 2596.66,-62.91"/>
</g>
<!-- sum6 -->
<g id="node32" class="node">
<title>sum6</title>
<polygon fill="Beige" stroke="black" points="3002.93,-63 2966.99,-45 3002.93,-27 3038.87,-45 3002.93,-63"/>
<text text-anchor="middle" x="3002.93" y="-41.4" font-family="Times,serif" font-size="12.00">sum6</text>
</g>
<!-- sum5&#45;&gt;sum6 -->
<g id="edge34" class="edge">
<title>sum5&#45;&gt;sum6</title>
<path fill="none" stroke="black" d="M2561.44,-39.95C2597.13,-33.18 2664.91,-22 2723.21,-22 2723.21,-22 2723.21,-22 2815.21,-22 2868.5,-22 2929.71,-31.34 2967.1,-38.12"/>
<polygon fill="black" stroke="black" points="2966.51,-41.57 2976.98,-39.95 2967.79,-34.69 2966.51,-41.57"/>
</g>
<!-- relu12 -->
<g id="node29" class="node">
<title>relu12</title>
<polygon fill="LightSalmon" stroke="black" points="2751.21,-86 2697.21,-86 2697.21,-50 2751.21,-50 2751.21,-86"/>
<text text-anchor="middle" x="2724.21" y="-64.4" font-family="Times,serif" font-size="12.00">relu12</text>
</g>
<!-- conv15&#45;&gt;relu12 -->
<g id="edge35" class="edge">
<title>conv15&#45;&gt;relu12</title>
<path fill="none" stroke="black" d="M2661.61,-68C2669.6,-68 2678.52,-68 2687.03,-68"/>
<polygon fill="black" stroke="black" points="2687.13,-71.5 2697.13,-68 2687.13,-64.5 2687.13,-71.5"/>
</g>
<!-- conv16 -->
<g id="node30" class="node">
<title>conv16</title>
<polygon fill="White" stroke="black" points="2841.21,-86 2787.21,-86 2787.21,-50 2841.21,-50 2841.21,-86"/>
<text text-anchor="middle" x="2814.21" y="-64.4" font-family="Times,serif" font-size="12.00">conv16</text>
</g>
<!-- relu12&#45;&gt;conv16 -->
<g id="edge36" class="edge">
<title>relu12&#45;&gt;conv16</title>
<path fill="none" stroke="black" d="M2751.61,-68C2759.6,-68 2768.52,-68 2777.03,-68"/>
<polygon fill="black" stroke="black" points="2777.13,-71.5 2787.13,-68 2777.13,-64.5 2777.13,-71.5"/>
</g>
<!-- relu13 -->
<g id="node31" class="node">
<title>relu13</title>
<polygon fill="LightSalmon" stroke="black" points="2931.21,-86 2877.21,-86 2877.21,-50 2931.21,-50 2931.21,-86"/>
<text text-anchor="middle" x="2904.21" y="-64.4" font-family="Times,serif" font-size="12.00">relu13</text>
</g>
<!-- conv16&#45;&gt;relu13 -->
<g id="edge37" class="edge">
<title>conv16&#45;&gt;relu13</title>
<path fill="none" stroke="black" d="M2841.61,-68C2849.6,-68 2858.52,-68 2867.03,-68"/>
<polygon fill="black" stroke="black" points="2867.13,-71.5 2877.13,-68 2867.13,-64.5 2867.13,-71.5"/>
</g>
<!-- relu13&#45;&gt;sum6 -->
<g id="edge38" class="edge">
<title>relu13&#45;&gt;sum6</title>
<path fill="none" stroke="black" d="M2931.38,-61.78C2942.75,-59.07 2956.2,-55.87 2968.29,-53"/>
<polygon fill="black" stroke="black" points="2969.14,-56.4 2978.06,-50.68 2967.52,-49.59 2969.14,-56.4"/>
</g>
<!-- conv17 -->
<g id="node33" class="node">
<title>conv17</title>
<polygon fill="White" stroke="black" points="3128.65,-88 3074.65,-88 3074.65,-52 3128.65,-52 3128.65,-88"/>
<text text-anchor="middle" x="3101.65" y="-66.4" font-family="Times,serif" font-size="12.00">conv17</text>
</g>
<!-- sum6&#45;&gt;conv17 -->
<g id="edge39" class="edge">
<title>sum6&#45;&gt;conv17</title>
<path fill="none" stroke="black" d="M3027.34,-51.05C3038.55,-53.95 3052.21,-57.48 3064.7,-60.71"/>
<polygon fill="black" stroke="black" points="3063.83,-64.1 3074.39,-63.21 3065.58,-57.32 3063.83,-64.1"/>
</g>
<!-- conv19 -->
<g id="node47" class="node">
<title>conv19</title>
<polygon fill="White" stroke="black" points="3218.65,-36 3164.65,-36 3164.65,0 3218.65,0 3218.65,-36"/>
<text text-anchor="middle" x="3191.65" y="-14.4" font-family="Times,serif" font-size="12.00">conv19</text>
</g>
<!-- sum6&#45;&gt;conv19 -->
<g id="edge40" class="edge">
<title>sum6&#45;&gt;conv19</title>
<path fill="none" stroke="black" d="M3031.08,-41.07C3063.58,-36.37 3118.12,-28.49 3154.25,-23.26"/>
<polygon fill="black" stroke="black" points="3154.98,-26.7 3164.37,-21.8 3153.97,-19.77 3154.98,-26.7"/>
</g>
<!-- relu14 -->
<g id="node34" class="node">
<title>relu14</title>
<polygon fill="LightSalmon" stroke="black" points="3218.65,-90 3164.65,-90 3164.65,-54 3218.65,-54 3218.65,-90"/>
<text text-anchor="middle" x="3191.65" y="-68.4" font-family="Times,serif" font-size="12.00">relu14</text>
</g>
<!-- conv17&#45;&gt;relu14 -->
<g id="edge41" class="edge">
<title>conv17&#45;&gt;relu14</title>
<path fill="none" stroke="black" d="M3129.05,-70.6C3137.04,-70.78 3145.96,-70.98 3154.48,-71.18"/>
<polygon fill="black" stroke="black" points="3154.49,-74.68 3164.57,-71.41 3154.65,-67.68 3154.49,-74.68"/>
</g>
<!-- conv18 -->
<g id="node35" class="node">
<title>conv18</title>
<polygon fill="White" stroke="black" points="3308.65,-89 3254.65,-89 3254.65,-53 3308.65,-53 3308.65,-89"/>
<text text-anchor="middle" x="3281.65" y="-67.4" font-family="Times,serif" font-size="12.00">conv18</text>
</g>
<!-- relu14&#45;&gt;conv18 -->
<g id="edge42" class="edge">
<title>relu14&#45;&gt;conv18</title>
<path fill="none" stroke="black" d="M3219.05,-71.7C3227.04,-71.61 3235.96,-71.51 3244.48,-71.41"/>
<polygon fill="black" stroke="black" points="3244.61,-74.91 3254.57,-71.3 3244.53,-67.91 3244.61,-74.91"/>
</g>
<!-- relu15 -->
<g id="node36" class="node">
<title>relu15</title>
<polygon fill="LightSalmon" stroke="black" points="3398.65,-88 3344.65,-88 3344.65,-52 3398.65,-52 3398.65,-88"/>
<text text-anchor="middle" x="3371.65" y="-66.4" font-family="Times,serif" font-size="12.00">relu15</text>
</g>
<!-- conv18&#45;&gt;relu15 -->
<g id="edge43" class="edge">
<title>conv18&#45;&gt;relu15</title>
<path fill="none" stroke="black" d="M3309.05,-70.7C3317.04,-70.61 3325.96,-70.51 3334.48,-70.41"/>
<polygon fill="black" stroke="black" points="3334.61,-73.91 3344.57,-70.3 3334.53,-66.91 3334.61,-73.91"/>
</g>
<!-- sum7 -->
<g id="node37" class="node">
<title>sum7</title>
<polygon fill="Beige" stroke="black" points="3470.37,-63 3434.43,-45 3470.37,-27 3506.32,-45 3470.37,-63"/>
<text text-anchor="middle" x="3470.37" y="-41.4" font-family="Times,serif" font-size="12.00">sum7</text>
</g>
<!-- relu15&#45;&gt;sum7 -->
<g id="edge44" class="edge">
<title>relu15&#45;&gt;sum7</title>
<path fill="none" stroke="black" d="M3398.83,-63.23C3410.36,-60.25 3424.05,-56.71 3436.29,-53.55"/>
<polygon fill="black" stroke="black" points="3437.34,-56.89 3446.15,-51 3435.59,-50.12 3437.34,-56.89"/>
</g>
<!-- conv20 -->
<g id="node38" class="node">
<title>conv20</title>
<polygon fill="White" stroke="black" points="3596.09,-86 3542.09,-86 3542.09,-50 3596.09,-50 3596.09,-86"/>
<text text-anchor="middle" x="3569.09" y="-64.4" font-family="Times,serif" font-size="12.00">conv20</text>
</g>
<!-- sum7&#45;&gt;conv20 -->
<g id="edge45" class="edge">
<title>sum7&#45;&gt;conv20</title>
<path fill="none" stroke="black" d="M3495.28,-50.69C3506.38,-53.33 3519.82,-56.52 3532.11,-59.44"/>
<polygon fill="black" stroke="black" points="3531.55,-62.91 3542.08,-61.82 3533.17,-56.1 3531.55,-62.91"/>
</g>
<!-- sum8 -->
<g id="node42" class="node">
<title>sum8</title>
<polygon fill="Beige" stroke="black" points="3937.81,-63 3901.87,-45 3937.81,-27 3973.76,-45 3937.81,-63"/>
<text text-anchor="middle" x="3937.81" y="-41.4" font-family="Times,serif" font-size="12.00">sum8</text>
</g>
<!-- sum7&#45;&gt;sum8 -->
<g id="edge46" class="edge">
<title>sum7&#45;&gt;sum8</title>
<path fill="none" stroke="black" d="M3496.32,-39.95C3532.01,-33.18 3599.79,-22 3658.09,-22 3658.09,-22 3658.09,-22 3750.09,-22 3803.38,-22 3864.59,-31.34 3901.98,-38.12"/>
<polygon fill="black" stroke="black" points="3901.4,-41.57 3911.87,-39.95 3902.67,-34.69 3901.4,-41.57"/>
</g>
<!-- relu16 -->
<g id="node39" class="node">
<title>relu16</title>
<polygon fill="LightSalmon" stroke="black" points="3686.09,-86 3632.09,-86 3632.09,-50 3686.09,-50 3686.09,-86"/>
<text text-anchor="middle" x="3659.09" y="-64.4" font-family="Times,serif" font-size="12.00">relu16</text>
</g>
<!-- conv20&#45;&gt;relu16 -->
<g id="edge47" class="edge">
<title>conv20&#45;&gt;relu16</title>
<path fill="none" stroke="black" d="M3596.5,-68C3604.49,-68 3613.4,-68 3621.92,-68"/>
<polygon fill="black" stroke="black" points="3622.01,-71.5 3632.01,-68 3622.01,-64.5 3622.01,-71.5"/>
</g>
<!-- conv21 -->
<g id="node40" class="node">
<title>conv21</title>
<polygon fill="White" stroke="black" points="3776.09,-86 3722.09,-86 3722.09,-50 3776.09,-50 3776.09,-86"/>
<text text-anchor="middle" x="3749.09" y="-64.4" font-family="Times,serif" font-size="12.00">conv21</text>
</g>
<!-- relu16&#45;&gt;conv21 -->
<g id="edge48" class="edge">
<title>relu16&#45;&gt;conv21</title>
<path fill="none" stroke="black" d="M3686.5,-68C3694.49,-68 3703.4,-68 3711.92,-68"/>
<polygon fill="black" stroke="black" points="3712.01,-71.5 3722.01,-68 3712.01,-64.5 3712.01,-71.5"/>
</g>
<!-- relu17 -->
<g id="node41" class="node">
<title>relu17</title>
<polygon fill="LightSalmon" stroke="black" points="3866.09,-86 3812.09,-86 3812.09,-50 3866.09,-50 3866.09,-86"/>
<text text-anchor="middle" x="3839.09" y="-64.4" font-family="Times,serif" font-size="12.00">relu17</text>
</g>
<!-- conv21&#45;&gt;relu17 -->
<g id="edge49" class="edge">
<title>conv21&#45;&gt;relu17</title>
<path fill="none" stroke="black" d="M3776.5,-68C3784.49,-68 3793.4,-68 3801.92,-68"/>
<polygon fill="black" stroke="black" points="3802.01,-71.5 3812.01,-68 3802.01,-64.5 3802.01,-71.5"/>
</g>
<!-- relu17&#45;&gt;sum8 -->
<g id="edge50" class="edge">
<title>relu17&#45;&gt;sum8</title>
<path fill="none" stroke="black" d="M3866.27,-61.78C3877.63,-59.07 3891.08,-55.87 3903.18,-53"/>
<polygon fill="black" stroke="black" points="3904.02,-56.4 3912.94,-50.68 3902.4,-49.59 3904.02,-56.4"/>
</g>
<!-- reshape1 -->
<g id="node43" class="node">
<title>reshape1</title>
<polygon fill="#bfbfbf" stroke="black" points="4068,-63 4009.71,-63 4009.71,-27 4068,-27 4068,-63"/>
<text text-anchor="middle" x="4038.86" y="-41.4" font-family="Times,serif" font-size="12.00">reshape1</text>
</g>
<!-- sum8&#45;&gt;reshape1 -->
<g id="edge51" class="edge">
<title>sum8&#45;&gt;reshape1</title>
<path fill="none" stroke="black" d="M3973.73,-45C3982.05,-45 3990.97,-45 3999.43,-45"/>
<polygon fill="black" stroke="black" points="3999.45,-48.5 4009.45,-45 3999.45,-41.5 3999.45,-48.5"/>
</g>
<!-- dense1 -->
<g id="node44" class="node">
<title>dense1</title>
<polygon fill="White" stroke="black" points="4158.18,-63 4104.18,-63 4104.18,-27 4158.18,-27 4158.18,-63"/>
<text text-anchor="middle" x="4131.18" y="-41.4" font-family="Times,serif" font-size="12.00">dense1</text>
</g>
<!-- reshape1&#45;&gt;dense1 -->
<g id="edge52" class="edge">
<title>reshape1&#45;&gt;dense1</title>
<path fill="none" stroke="black" d="M4068.44,-45C4076.52,-45 4085.43,-45 4093.9,-45"/>
<polygon fill="black" stroke="black" points="4093.93,-48.5 4103.93,-45 4093.93,-41.5 4093.93,-48.5"/>
</g>
<!-- relu18 -->
<g id="node45" class="node">
<title>relu18</title>
<polygon fill="LightSalmon" stroke="black" points="4248.18,-63 4194.18,-63 4194.18,-27 4248.18,-27 4248.18,-63"/>
<text text-anchor="middle" x="4221.18" y="-41.4" font-family="Times,serif" font-size="12.00">relu18</text>
</g>
<!-- dense1&#45;&gt;relu18 -->
<g id="edge53" class="edge">
<title>dense1&#45;&gt;relu18</title>
<path fill="none" stroke="black" d="M4158.58,-45C4166.57,-45 4175.49,-45 4184,-45"/>
<polygon fill="black" stroke="black" points="4184.1,-48.5 4194.1,-45 4184.1,-41.5 4184.1,-48.5"/>
</g>
<!-- dense2 -->
<g id="node46" class="node">
<title>dense2</title>
<polygon fill="White" stroke="black" points="4338.18,-63 4284.18,-63 4284.18,-27 4338.18,-27 4338.18,-63"/>
<text text-anchor="middle" x="4311.18" y="-41.4" font-family="Times,serif" font-size="12.00">dense2</text>
</g>
<!-- relu18&#45;&gt;dense2 -->
<g id="edge54" class="edge">
<title>relu18&#45;&gt;dense2</title>
<path fill="none" stroke="black" d="M4248.58,-45C4256.57,-45 4265.49,-45 4274,-45"/>
<polygon fill="black" stroke="black" points="4274.1,-48.5 4284.1,-45 4274.1,-41.5 4274.1,-48.5"/>
</g>
<!-- softmax19 -->
<g id="node52" class="node">
<title>softmax19</title>
<polygon fill="LightBlue" stroke="black" points="4440.67,-63 4374.35,-63 4374.35,-27 4440.67,-27 4440.67,-63"/>
<text text-anchor="middle" x="4407.51" y="-41.4" font-family="Times,serif" font-size="12.00">softmax19</text>
</g>
<!-- dense2&#45;&gt;softmax19 -->
<g id="edge55" class="edge">
<title>dense2&#45;&gt;softmax19</title>
<path fill="none" stroke="black" d="M4338.21,-45C4346.2,-45 4355.22,-45 4364.02,-45"/>
<polygon fill="black" stroke="black" points="4364.17,-48.5 4374.17,-45 4364.17,-41.5 4364.17,-48.5"/>
</g>
<!-- conv19&#45;&gt;sum7 -->
<g id="edge56" class="edge">
<title>conv19&#45;&gt;sum7</title>
<path fill="none" stroke="black" d="M3218.68,-20.54C3267.32,-25.29 3372.25,-35.52 3429.73,-41.13"/>
<polygon fill="black" stroke="black" points="3429.6,-44.64 3439.89,-42.12 3430.28,-37.67 3429.6,-44.64"/>
</g>
<!-- conv14&#45;&gt;sum5 -->
<g id="edge57" class="edge">
<title>conv14&#45;&gt;sum5</title>
<path fill="none" stroke="black" d="M2283.8,-20.54C2332.44,-25.29 2437.37,-35.52 2494.85,-41.13"/>
<polygon fill="black" stroke="black" points="2494.71,-44.64 2505.01,-42.12 2495.39,-37.67 2494.71,-44.64"/>
</g>
<!-- conv9&#45;&gt;sum3 -->
<g id="edge58" class="edge">
<title>conv9&#45;&gt;sum3</title>
<path fill="none" stroke="black" d="M1348.92,-20.54C1397.55,-25.29 1502.48,-35.52 1559.96,-41.13"/>
<polygon fill="black" stroke="black" points="1559.83,-44.64 1570.12,-42.12 1560.51,-37.67 1559.83,-44.64"/>
</g>
<!-- conv4&#45;&gt;sum1 -->
<g id="edge59" class="edge">
<title>conv4&#45;&gt;sum1</title>
<path fill="none" stroke="black" d="M414.03,-20.54C462.67,-25.29 567.6,-35.52 625.08,-41.13"/>
<polygon fill="black" stroke="black" points="624.95,-44.64 635.24,-42.12 625.63,-37.67 624.95,-44.64"/>
</g>
<!-- input1 -->
<g id="node51" class="node">
<title>input1</title>
<polygon fill="LightBlue" stroke="black" points="54,-63 0,-63 0,-27 54,-27 54,-63"/>
<text text-anchor="middle" x="27" y="-41.4" font-family="Times,serif" font-size="12.00">input1</text>
</g>
<!-- input1&#45;&gt;conv1 -->
<g id="edge1" class="edge">
<title>input1&#45;&gt;conv1</title>
<path fill="none" stroke="black" d="M54.4,-45C62.39,-45 71.31,-45 79.82,-45"/>
<polygon fill="black" stroke="black" points="79.92,-48.5 89.92,-45 79.92,-41.5 79.92,-48.5"/>
</g>
</g>
</svg>
