<?xml version="1.0" encoding="UTF-8" standalone="no"?>
<!DOCTYPE svg PUBLIC "-//W3C//DTD SVG 1.1//EN"
 "http://www.w3.org/Graphics/SVG/1.1/DTD/svg11.dtd">
<!-- Generated by graphviz version 2.43.0 (0)
 -->
<!-- Title: Model Pages: 1 -->
<svg width="5420pt" height="198pt"
 viewBox="0.00 0.00 5419.79 198.00" xmlns="http://www.w3.org/2000/svg" xmlns:xlink="http://www.w3.org/1999/xlink">
<g id="graph0" class="graph" transform="scale(1 1) rotate(0) translate(4 194)">
<title>Model</title>
<polygon fill="white" stroke="transparent" points="-4,4 -4,-194 5415.79,-194 5415.79,4 -4,4"/>
<!-- conv1 -->
<g id="node1" class="node">
<title>conv1</title>
<polygon fill="White" stroke="black" points="144,-41 90,-41 90,-5 144,-5 144,-41"/>
<text text-anchor="middle" x="117" y="-19.4" font-family="Times,serif" font-size="12.00">conv1</text>
</g>
<!-- leaky_relu1 -->
<g id="node2" class="node">
<title>leaky_relu1</title>
<polygon fill="LightSalmon" stroke="black" points="252.46,-41 180.18,-41 180.18,-5 252.46,-5 252.46,-41"/>
<text text-anchor="middle" x="216.32" y="-19.4" font-family="Times,serif" font-size="12.00">leaky_relu1</text>
</g>
<!-- conv1&#45;&gt;leaky_relu1 -->
<g id="edge2" class="edge">
<title>conv1&#45;&gt;leaky_relu1</title>
<path fill="none" stroke="black" d="M144.08,-23C152.01,-23 160.97,-23 169.79,-23"/>
<polygon fill="black" stroke="black" points="170.02,-26.5 180.02,-23 170.02,-19.5 170.02,-26.5"/>
</g>
<!-- conv2 -->
<g id="node3" class="node">
<title>conv2</title>
<polygon fill="White" stroke="black" points="342.64,-41 288.64,-41 288.64,-5 342.64,-5 342.64,-41"/>
<text text-anchor="middle" x="315.64" y="-19.4" font-family="Times,serif" font-size="12.00">conv2</text>
</g>
<!-- leaky_relu1&#45;&gt;conv2 -->
<g id="edge3" class="edge">
<title>leaky_relu1&#45;&gt;conv2</title>
<path fill="none" stroke="black" d="M252.73,-23C261.06,-23 269.95,-23 278.32,-23"/>
<polygon fill="black" stroke="black" points="278.57,-26.5 288.57,-23 278.57,-19.5 278.57,-26.5"/>
</g>
<!-- leaky_relu2 -->
<g id="node4" class="node">
<title>leaky_relu2</title>
<polygon fill="LightSalmon" stroke="black" points="451.11,-41 378.82,-41 378.82,-5 451.11,-5 451.11,-41"/>
<text text-anchor="middle" x="414.96" y="-19.4" font-family="Times,serif" font-size="12.00">leaky_relu2</text>
</g>
<!-- conv2&#45;&gt;leaky_relu2 -->
<g id="edge4" class="edge">
<title>conv2&#45;&gt;leaky_relu2</title>
<path fill="none" stroke="black" d="M342.72,-23C350.65,-23 359.62,-23 368.44,-23"/>
<polygon fill="black" stroke="black" points="368.66,-26.5 378.66,-23 368.66,-19.5 368.66,-26.5"/>
</g>
<!-- pool1 -->
<g id="node5" class="node">
<title>pool1</title>
<polygon fill="#bfbfbf" stroke="black" points="541.29,-64 487.29,-64 487.29,-28 541.29,-28 541.29,-64"/>
<text text-anchor="middle" x="514.29" y="-42.4" font-family="Times,serif" font-size="12.00">pool1</text>
</g>
<!-- leaky_relu2&#45;&gt;pool1 -->
<g id="edge5" class="edge">
<title>leaky_relu2&#45;&gt;pool1</title>
<path fill="none" stroke="black" d="M451.37,-31.37C459.8,-33.36 468.79,-35.49 477.25,-37.48"/>
<polygon fill="black" stroke="black" points="476.67,-40.94 487.21,-39.84 478.28,-34.13 476.67,-40.94"/>
</g>
<!-- concat5 -->
<g id="node48" class="node">
<title>concat5</title>
<polygon fill="#9ac0cd" stroke="black" points="4809.83,-41 4755.83,-41 4755.83,-5 4809.83,-5 4809.83,-41"/>
<text text-anchor="middle" x="4782.83" y="-19.4" font-family="Times,serif" font-size="12.00">concat5</text>
</g>
<!-- leaky_relu2&#45;&gt;concat5 -->
<g id="edge6" class="edge">
<title>leaky_relu2&#45;&gt;concat5</title>
<path fill="none" stroke="black" d="M451.37,-16.04C488.92,-9.27 550.04,0 603.29,0 603.29,0 603.29,0 4591.83,0 4645.74,0 4707.64,-9.24 4745.74,-16.01"/>
<polygon fill="black" stroke="black" points="4745.37,-19.49 4755.83,-17.84 4746.62,-12.61 4745.37,-19.49"/>
</g>
<!-- conv3 -->
<g id="node6" class="node">
<title>conv3</title>
<polygon fill="White" stroke="black" points="631.29,-64 577.29,-64 577.29,-28 631.29,-28 631.29,-64"/>
<text text-anchor="middle" x="604.29" y="-42.4" font-family="Times,serif" font-size="12.00">conv3</text>
</g>
<!-- pool1&#45;&gt;conv3 -->
<g id="edge7" class="edge">
<title>pool1&#45;&gt;conv3</title>
<path fill="none" stroke="black" d="M541.69,-46C549.68,-46 558.6,-46 567.11,-46"/>
<polygon fill="black" stroke="black" points="567.2,-49.5 577.2,-46 567.2,-42.5 567.2,-49.5"/>
</g>
<!-- leaky_relu3 -->
<g id="node7" class="node">
<title>leaky_relu3</title>
<polygon fill="LightSalmon" stroke="black" points="739.75,-64 667.46,-64 667.46,-28 739.75,-28 739.75,-64"/>
<text text-anchor="middle" x="703.61" y="-42.4" font-family="Times,serif" font-size="12.00">leaky_relu3</text>
</g>
<!-- conv3&#45;&gt;leaky_relu3 -->
<g id="edge8" class="edge">
<title>conv3&#45;&gt;leaky_relu3</title>
<path fill="none" stroke="black" d="M631.37,-46C639.3,-46 648.26,-46 657.08,-46"/>
<polygon fill="black" stroke="black" points="657.3,-49.5 667.3,-46 657.3,-42.5 657.3,-49.5"/>
</g>
<!-- conv4 -->
<g id="node8" class="node">
<title>conv4</title>
<polygon fill="White" stroke="black" points="829.93,-64 775.93,-64 775.93,-28 829.93,-28 829.93,-64"/>
<text text-anchor="middle" x="802.93" y="-42.4" font-family="Times,serif" font-size="12.00">conv4</text>
</g>
<!-- leaky_relu3&#45;&gt;conv4 -->
<g id="edge9" class="edge">
<title>leaky_relu3&#45;&gt;conv4</title>
<path fill="none" stroke="black" d="M740.02,-46C748.35,-46 757.24,-46 765.61,-46"/>
<polygon fill="black" stroke="black" points="765.85,-49.5 775.85,-46 765.85,-42.5 765.85,-49.5"/>
</g>
<!-- leaky_relu4 -->
<g id="node9" class="node">
<title>leaky_relu4</title>
<polygon fill="LightSalmon" stroke="black" points="938.39,-64 866.11,-64 866.11,-28 938.39,-28 938.39,-64"/>
<text text-anchor="middle" x="902.25" y="-42.4" font-family="Times,serif" font-size="12.00">leaky_relu4</text>
</g>
<!-- conv4&#45;&gt;leaky_relu4 -->
<g id="edge10" class="edge">
<title>conv4&#45;&gt;leaky_relu4</title>
<path fill="none" stroke="black" d="M830.01,-46C837.94,-46 846.9,-46 855.72,-46"/>
<polygon fill="black" stroke="black" points="855.95,-49.5 865.95,-46 855.95,-42.5 855.95,-49.5"/>
</g>
<!-- pool2 -->
<g id="node10" class="node">
<title>pool2</title>
<polygon fill="#bfbfbf" stroke="black" points="1028.57,-106 974.57,-106 974.57,-70 1028.57,-70 1028.57,-106"/>
<text text-anchor="middle" x="1001.57" y="-84.4" font-family="Times,serif" font-size="12.00">pool2</text>
</g>
<!-- leaky_relu4&#45;&gt;pool2 -->
<g id="edge11" class="edge">
<title>leaky_relu4&#45;&gt;pool2</title>
<path fill="none" stroke="black" d="M938.66,-61.28C947.27,-65 956.48,-68.97 965.09,-72.69"/>
<polygon fill="black" stroke="black" points="963.92,-76 974.49,-76.75 966.7,-69.57 963.92,-76"/>
</g>
<!-- concat4 -->
<g id="node41" class="node">
<title>concat4</title>
<polygon fill="#9ac0cd" stroke="black" points="4106.55,-64 4052.55,-64 4052.55,-28 4106.55,-28 4106.55,-64"/>
<text text-anchor="middle" x="4079.55" y="-42.4" font-family="Times,serif" font-size="12.00">concat4</text>
</g>
<!-- leaky_relu4&#45;&gt;concat4 -->
<g id="edge12" class="edge">
<title>leaky_relu4&#45;&gt;concat4</title>
<path fill="none" stroke="black" d="M938.46,-44.8C976.1,-43.62 1037.55,-42 1090.57,-42 1090.57,-42 1090.57,-42 3888.55,-42 3942.08,-42 4004.08,-43.61 4042.31,-44.78"/>
<polygon fill="black" stroke="black" points="4042.33,-48.29 4052.43,-45.1 4042.55,-41.29 4042.33,-48.29"/>
</g>
<!-- conv5 -->
<g id="node11" class="node">
<title>conv5</title>
<polygon fill="White" stroke="black" points="1118.57,-106 1064.57,-106 1064.57,-70 1118.57,-70 1118.57,-106"/>
<text text-anchor="middle" x="1091.57" y="-84.4" font-family="Times,serif" font-size="12.00">conv5</text>
</g>
<!-- pool2&#45;&gt;conv5 -->
<g id="edge13" class="edge">
<title>pool2&#45;&gt;conv5</title>
<path fill="none" stroke="black" d="M1028.97,-88C1036.96,-88 1045.88,-88 1054.39,-88"/>
<polygon fill="black" stroke="black" points="1054.49,-91.5 1064.49,-88 1054.49,-84.5 1054.49,-91.5"/>
</g>
<!-- leaky_relu5 -->
<g id="node12" class="node">
<title>leaky_relu5</title>
<polygon fill="LightSalmon" stroke="black" points="1227.04,-106 1154.75,-106 1154.75,-70 1227.04,-70 1227.04,-106"/>
<text text-anchor="middle" x="1190.89" y="-84.4" font-family="Times,serif" font-size="12.00">leaky_relu5</text>
</g>
<!-- conv5&#45;&gt;leaky_relu5 -->
<g id="edge14" class="edge">
<title>conv5&#45;&gt;leaky_relu5</title>
<path fill="none" stroke="black" d="M1118.65,-88C1126.58,-88 1135.54,-88 1144.37,-88"/>
<polygon fill="black" stroke="black" points="1144.59,-91.5 1154.59,-88 1144.59,-84.5 1144.59,-91.5"/>
</g>
<!-- conv6 -->
<g id="node13" class="node">
<title>conv6</title>
<polygon fill="White" stroke="black" points="1317.21,-106 1263.21,-106 1263.21,-70 1317.21,-70 1317.21,-106"/>
<text text-anchor="middle" x="1290.21" y="-84.4" font-family="Times,serif" font-size="12.00">conv6</text>
</g>
<!-- leaky_relu5&#45;&gt;conv6 -->
<g id="edge15" class="edge">
<title>leaky_relu5&#45;&gt;conv6</title>
<path fill="none" stroke="black" d="M1227.3,-88C1235.63,-88 1244.52,-88 1252.89,-88"/>
<polygon fill="black" stroke="black" points="1253.14,-91.5 1263.14,-88 1253.14,-84.5 1253.14,-91.5"/>
</g>
<!-- leaky_relu6 -->
<g id="node14" class="node">
<title>leaky_relu6</title>
<polygon fill="LightSalmon" stroke="black" points="1425.68,-106 1353.39,-106 1353.39,-70 1425.68,-70 1425.68,-106"/>
<text text-anchor="middle" x="1389.53" y="-84.4" font-family="Times,serif" font-size="12.00">leaky_relu6</text>
</g>
<!-- conv6&#45;&gt;leaky_relu6 -->
<g id="edge16" class="edge">
<title>conv6&#45;&gt;leaky_relu6</title>
<path fill="none" stroke="black" d="M1317.29,-88C1325.23,-88 1334.19,-88 1343.01,-88"/>
<polygon fill="black" stroke="black" points="1343.23,-91.5 1353.23,-88 1343.23,-84.5 1343.23,-91.5"/>
</g>
<!-- pool3 -->
<g id="node15" class="node">
<title>pool3</title>
<polygon fill="#bfbfbf" stroke="black" points="1515.86,-148 1461.86,-148 1461.86,-112 1515.86,-112 1515.86,-148"/>
<text text-anchor="middle" x="1488.86" y="-126.4" font-family="Times,serif" font-size="12.00">pool3</text>
</g>
<!-- leaky_relu6&#45;&gt;pool3 -->
<g id="edge17" class="edge">
<title>leaky_relu6&#45;&gt;pool3</title>
<path fill="none" stroke="black" d="M1425.94,-103.28C1434.55,-107 1443.76,-110.97 1452.37,-114.69"/>
<polygon fill="black" stroke="black" points="1451.21,-118 1461.78,-118.75 1453.98,-111.57 1451.21,-118"/>
</g>
<!-- concat3 -->
<g id="node34" class="node">
<title>concat3</title>
<polygon fill="#9ac0cd" stroke="black" points="3403.27,-106 3349.27,-106 3349.27,-70 3403.27,-70 3403.27,-106"/>
<text text-anchor="middle" x="3376.27" y="-84.4" font-family="Times,serif" font-size="12.00">concat3</text>
</g>
<!-- leaky_relu6&#45;&gt;concat3 -->
<g id="edge18" class="edge">
<title>leaky_relu6&#45;&gt;concat3</title>
<path fill="none" stroke="black" d="M1425.74,-86.8C1463.39,-85.62 1524.83,-84 1577.86,-84 1577.86,-84 1577.86,-84 3185.27,-84 3238.8,-84 3300.79,-85.61 3339.02,-86.78"/>
<polygon fill="black" stroke="black" points="3339.04,-90.29 3349.15,-87.1 3339.26,-83.29 3339.04,-90.29"/>
</g>
<!-- conv7 -->
<g id="node16" class="node">
<title>conv7</title>
<polygon fill="White" stroke="black" points="1605.86,-148 1551.86,-148 1551.86,-112 1605.86,-112 1605.86,-148"/>
<text text-anchor="middle" x="1578.86" y="-126.4" font-family="Times,serif" font-size="12.00">conv7</text>
</g>
<!-- pool3&#45;&gt;conv7 -->
<g id="edge19" class="edge">
<title>pool3&#45;&gt;conv7</title>
<path fill="none" stroke="black" d="M1516.26,-130C1524.25,-130 1533.17,-130 1541.68,-130"/>
<polygon fill="black" stroke="black" points="1541.77,-133.5 1551.77,-130 1541.77,-126.5 1541.77,-133.5"/>
</g>
<!-- leaky_relu7 -->
<g id="node17" class="node">
<title>leaky_relu7</title>
<polygon fill="LightSalmon" stroke="black" points="1714.32,-148 1642.03,-148 1642.03,-112 1714.32,-112 1714.32,-148"/>
<text text-anchor="middle" x="1678.18" y="-126.4" font-family="Times,serif" font-size="12.00">leaky_relu7</text>
</g>
<!-- conv7&#45;&gt;leaky_relu7 -->
<g id="edge20" class="edge">
<title>conv7&#45;&gt;leaky_relu7</title>
<path fill="none" stroke="black" d="M1605.94,-130C1613.87,-130 1622.83,-130 1631.65,-130"/>
<polygon fill="black" stroke="black" points="1631.87,-133.5 1641.87,-130 1631.87,-126.5 1631.87,-133.5"/>
</g>
<!-- conv8 -->
<g id="node18" class="node">
<title>conv8</title>
<polygon fill="White" stroke="black" points="1804.5,-148 1750.5,-148 1750.5,-112 1804.5,-112 1804.5,-148"/>
<text text-anchor="middle" x="1777.5" y="-126.4" font-family="Times,serif" font-size="12.00">conv8</text>
</g>
<!-- leaky_relu7&#45;&gt;conv8 -->
<g id="edge21" class="edge">
<title>leaky_relu7&#45;&gt;conv8</title>
<path fill="none" stroke="black" d="M1714.59,-130C1722.92,-130 1731.81,-130 1740.18,-130"/>
<polygon fill="black" stroke="black" points="1740.42,-133.5 1750.42,-130 1740.42,-126.5 1740.42,-133.5"/>
</g>
<!-- leaky_relu8 -->
<g id="node19" class="node">
<title>leaky_relu8</title>
<polygon fill="LightSalmon" stroke="black" points="1912.96,-148 1840.68,-148 1840.68,-112 1912.96,-112 1912.96,-148"/>
<text text-anchor="middle" x="1876.82" y="-126.4" font-family="Times,serif" font-size="12.00">leaky_relu8</text>
</g>
<!-- conv8&#45;&gt;leaky_relu8 -->
<g id="edge22" class="edge">
<title>conv8&#45;&gt;leaky_relu8</title>
<path fill="none" stroke="black" d="M1804.58,-130C1812.51,-130 1821.47,-130 1830.29,-130"/>
<polygon fill="black" stroke="black" points="1830.52,-133.5 1840.52,-130 1830.52,-126.5 1830.52,-133.5"/>
</g>
<!-- pool4 -->
<g id="node20" class="node">
<title>pool4</title>
<polygon fill="#bfbfbf" stroke="black" points="2003.14,-190 1949.14,-190 1949.14,-154 2003.14,-154 2003.14,-190"/>
<text text-anchor="middle" x="1976.14" y="-168.4" font-family="Times,serif" font-size="12.00">pool4</text>
</g>
<!-- leaky_relu8&#45;&gt;pool4 -->
<g id="edge23" class="edge">
<title>leaky_relu8&#45;&gt;pool4</title>
<path fill="none" stroke="black" d="M1913.23,-145.28C1921.84,-149 1931.05,-152.97 1939.66,-156.69"/>
<polygon fill="black" stroke="black" points="1938.49,-160 1949.06,-160.75 1941.27,-153.57 1938.49,-160"/>
</g>
<!-- concat2 -->
<g id="node27" class="node">
<title>concat2</title>
<polygon fill="#9ac0cd" stroke="black" points="2700.42,-148 2646.42,-148 2646.42,-112 2700.42,-112 2700.42,-148"/>
<text text-anchor="middle" x="2673.42" y="-126.4" font-family="Times,serif" font-size="12.00">concat2</text>
</g>
<!-- leaky_relu8&#45;&gt;concat2 -->
<g id="edge24" class="edge">
<title>leaky_relu8&#45;&gt;concat2</title>
<path fill="none" stroke="black" d="M1913.03,-128.8C1950.68,-127.62 2012.12,-126 2065.14,-126 2065.14,-126 2065.14,-126 2482.42,-126 2535.96,-126 2597.95,-127.61 2636.18,-128.78"/>
<polygon fill="black" stroke="black" points="2636.2,-132.29 2646.3,-129.1 2636.42,-125.29 2636.2,-132.29"/>
</g>
<!-- conv9 -->
<g id="node21" class="node">
<title>conv9</title>
<polygon fill="White" stroke="black" points="2093.14,-190 2039.14,-190 2039.14,-154 2093.14,-154 2093.14,-190"/>
<text text-anchor="middle" x="2066.14" y="-168.4" font-family="Times,serif" font-size="12.00">conv9</text>
</g>
<!-- pool4&#45;&gt;conv9 -->
<g id="edge25" class="edge">
<title>pool4&#45;&gt;conv9</title>
<path fill="none" stroke="black" d="M2003.54,-172C2011.53,-172 2020.45,-172 2028.96,-172"/>
<polygon fill="black" stroke="black" points="2029.06,-175.5 2039.06,-172 2029.06,-168.5 2029.06,-175.5"/>
</g>
<!-- leaky_relu9 -->
<g id="node22" class="node">
<title>leaky_relu9</title>
<polygon fill="LightSalmon" stroke="black" points="2201.61,-190 2129.32,-190 2129.32,-154 2201.61,-154 2201.61,-190"/>
<text text-anchor="middle" x="2165.46" y="-168.4" font-family="Times,serif" font-size="12.00">leaky_relu9</text>
</g>
<!-- conv9&#45;&gt;leaky_relu9 -->
<g id="edge26" class="edge">
<title>conv9&#45;&gt;leaky_relu9</title>
<path fill="none" stroke="black" d="M2093.22,-172C2101.15,-172 2110.11,-172 2118.94,-172"/>
<polygon fill="black" stroke="black" points="2119.16,-175.5 2129.16,-172 2119.16,-168.5 2119.16,-175.5"/>
</g>
<!-- conv10 -->
<g id="node23" class="node">
<title>conv10</title>
<polygon fill="White" stroke="black" points="2291.78,-190 2237.78,-190 2237.78,-154 2291.78,-154 2291.78,-190"/>
<text text-anchor="middle" x="2264.78" y="-168.4" font-family="Times,serif" font-size="12.00">conv10</text>
</g>
<!-- leaky_relu9&#45;&gt;conv10 -->
<g id="edge27" class="edge">
<title>leaky_relu9&#45;&gt;conv10</title>
<path fill="none" stroke="black" d="M2201.87,-172C2210.2,-172 2219.09,-172 2227.46,-172"/>
<polygon fill="black" stroke="black" points="2227.71,-175.5 2237.71,-172 2227.71,-168.5 2227.71,-175.5"/>
</g>
<!-- leaky_relu10 -->
<g id="node24" class="node">
<title>leaky_relu10</title>
<polygon fill="LightSalmon" stroke="black" points="2406.25,-190 2327.96,-190 2327.96,-154 2406.25,-154 2406.25,-190"/>
<text text-anchor="middle" x="2367.1" y="-168.4" font-family="Times,serif" font-size="12.00">leaky_relu10</text>
</g>
<!-- conv10&#45;&gt;leaky_relu10 -->
<g id="edge28" class="edge">
<title>conv10&#45;&gt;leaky_relu10</title>
<path fill="none" stroke="black" d="M2291.88,-172C2299.72,-172 2308.6,-172 2317.41,-172"/>
<polygon fill="black" stroke="black" points="2317.67,-175.5 2327.67,-172 2317.67,-168.5 2317.67,-175.5"/>
</g>
<!-- upsampling1 -->
<g id="node25" class="node">
<title>upsampling1</title>
<polygon fill="#bfbfbf" stroke="black" points="2520.42,-190 2442.43,-190 2442.43,-154 2520.42,-154 2520.42,-190"/>
<text text-anchor="middle" x="2481.42" y="-168.4" font-family="Times,serif" font-size="12.00">upsampling1</text>
</g>
<!-- leaky_relu10&#45;&gt;upsampling1 -->
<g id="edge29" class="edge">
<title>leaky_relu10&#45;&gt;upsampling1</title>
<path fill="none" stroke="black" d="M2406.44,-172C2414.67,-172 2423.46,-172 2432.01,-172"/>
<polygon fill="black" stroke="black" points="2432.26,-175.5 2442.26,-172 2432.26,-168.5 2432.26,-175.5"/>
</g>
<!-- conv11 -->
<g id="node26" class="node">
<title>conv11</title>
<polygon fill="White" stroke="black" points="2610.42,-190 2556.42,-190 2556.42,-154 2610.42,-154 2610.42,-190"/>
<text text-anchor="middle" x="2583.42" y="-168.4" font-family="Times,serif" font-size="12.00">conv11</text>
</g>
<!-- upsampling1&#45;&gt;conv11 -->
<g id="edge30" class="edge">
<title>upsampling1&#45;&gt;conv11</title>
<path fill="none" stroke="black" d="M2520.52,-172C2528.9,-172 2537.75,-172 2546.07,-172"/>
<polygon fill="black" stroke="black" points="2546.23,-175.5 2556.23,-172 2546.23,-168.5 2546.23,-175.5"/>
</g>
<!-- conv11&#45;&gt;concat2 -->
<g id="edge31" class="edge">
<title>conv11&#45;&gt;concat2</title>
<path fill="none" stroke="black" d="M2610.83,-159.4C2619.08,-155.46 2628.32,-151.05 2637.09,-146.86"/>
<polygon fill="black" stroke="black" points="2638.83,-149.91 2646.34,-142.45 2635.81,-143.6 2638.83,-149.91"/>
</g>
<!-- conv12 -->
<g id="node28" class="node">
<title>conv12</title>
<polygon fill="White" stroke="black" points="2790.42,-148 2736.42,-148 2736.42,-112 2790.42,-112 2790.42,-148"/>
<text text-anchor="middle" x="2763.42" y="-126.4" font-family="Times,serif" font-size="12.00">conv12</text>
</g>
<!-- concat2&#45;&gt;conv12 -->
<g id="edge32" class="edge">
<title>concat2&#45;&gt;conv12</title>
<path fill="none" stroke="black" d="M2700.83,-130C2708.82,-130 2717.73,-130 2726.25,-130"/>
<polygon fill="black" stroke="black" points="2726.34,-133.5 2736.34,-130 2726.34,-126.5 2726.34,-133.5"/>
</g>
<!-- leaky_relu11 -->
<g id="node29" class="node">
<title>leaky_relu11</title>
<polygon fill="LightSalmon" stroke="black" points="2904.73,-148 2826.32,-148 2826.32,-112 2904.73,-112 2904.73,-148"/>
<text text-anchor="middle" x="2865.53" y="-126.4" font-family="Times,serif" font-size="12.00">leaky_relu11</text>
</g>
<!-- conv12&#45;&gt;leaky_relu11 -->
<g id="edge33" class="edge">
<title>conv12&#45;&gt;leaky_relu11</title>
<path fill="none" stroke="black" d="M2790.46,-130C2798.29,-130 2807.15,-130 2815.94,-130"/>
<polygon fill="black" stroke="black" points="2816.17,-133.5 2826.17,-130 2816.17,-126.5 2816.17,-133.5"/>
</g>
<!-- conv13 -->
<g id="node30" class="node">
<title>conv13</title>
<polygon fill="White" stroke="black" points="2994.63,-148 2940.63,-148 2940.63,-112 2994.63,-112 2994.63,-148"/>
<text text-anchor="middle" x="2967.63" y="-126.4" font-family="Times,serif" font-size="12.00">conv13</text>
</g>
<!-- leaky_relu11&#45;&gt;conv13 -->
<g id="edge34" class="edge">
<title>leaky_relu11&#45;&gt;conv13</title>
<path fill="none" stroke="black" d="M2904.66,-130C2913.05,-130 2921.91,-130 2930.23,-130"/>
<polygon fill="black" stroke="black" points="2930.4,-133.5 2940.4,-130 2930.4,-126.5 2930.4,-133.5"/>
</g>
<!-- leaky_relu12 -->
<g id="node31" class="node">
<title>leaky_relu12</title>
<polygon fill="LightSalmon" stroke="black" points="3109.09,-148 3030.8,-148 3030.8,-112 3109.09,-112 3109.09,-148"/>
<text text-anchor="middle" x="3069.95" y="-126.4" font-family="Times,serif" font-size="12.00">leaky_relu12</text>
</g>
<!-- conv13&#45;&gt;leaky_relu12 -->
<g id="edge35" class="edge">
<title>conv13&#45;&gt;leaky_relu12</title>
<path fill="none" stroke="black" d="M2994.72,-130C3002.57,-130 3011.44,-130 3020.26,-130"/>
<polygon fill="black" stroke="black" points="3020.51,-133.5 3030.51,-130 3020.51,-126.5 3020.51,-133.5"/>
</g>
<!-- upsampling2 -->
<g id="node32" class="node">
<title>upsampling2</title>
<polygon fill="#bfbfbf" stroke="black" points="3223.27,-148 3145.27,-148 3145.27,-112 3223.27,-112 3223.27,-148"/>
<text text-anchor="middle" x="3184.27" y="-126.4" font-family="Times,serif" font-size="12.00">upsampling2</text>
</g>
<!-- leaky_relu12&#45;&gt;upsampling2 -->
<g id="edge36" class="edge">
<title>leaky_relu12&#45;&gt;upsampling2</title>
<path fill="none" stroke="black" d="M3109.29,-130C3117.51,-130 3126.3,-130 3134.85,-130"/>
<polygon fill="black" stroke="black" points="3135.1,-133.5 3145.1,-130 3135.1,-126.5 3135.1,-133.5"/>
</g>
<!-- conv14 -->
<g id="node33" class="node">
<title>conv14</title>
<polygon fill="White" stroke="black" points="3313.27,-148 3259.27,-148 3259.27,-112 3313.27,-112 3313.27,-148"/>
<text text-anchor="middle" x="3286.27" y="-126.4" font-family="Times,serif" font-size="12.00">conv14</text>
</g>
<!-- upsampling2&#45;&gt;conv14 -->
<g id="edge37" class="edge">
<title>upsampling2&#45;&gt;conv14</title>
<path fill="none" stroke="black" d="M3223.36,-130C3231.74,-130 3240.6,-130 3248.91,-130"/>
<polygon fill="black" stroke="black" points="3249.07,-133.5 3259.07,-130 3249.07,-126.5 3249.07,-133.5"/>
</g>
<!-- conv14&#45;&gt;concat3 -->
<g id="edge38" class="edge">
<title>conv14&#45;&gt;concat3</title>
<path fill="none" stroke="black" d="M3313.67,-117.4C3321.92,-113.46 3331.17,-109.05 3339.93,-104.86"/>
<polygon fill="black" stroke="black" points="3341.67,-107.91 3349.19,-100.45 3338.65,-101.6 3341.67,-107.91"/>
</g>
<!-- conv15 -->
<g id="node35" class="node">
<title>conv15</title>
<polygon fill="White" stroke="black" points="3493.27,-106 3439.27,-106 3439.27,-70 3493.27,-70 3493.27,-106"/>
<text text-anchor="middle" x="3466.27" y="-84.4" font-family="Times,serif" font-size="12.00">conv15</text>
</g>
<!-- concat3&#45;&gt;conv15 -->
<g id="edge39" class="edge">
<title>concat3&#45;&gt;conv15</title>
<path fill="none" stroke="black" d="M3403.67,-88C3411.66,-88 3420.58,-88 3429.09,-88"/>
<polygon fill="black" stroke="black" points="3429.19,-91.5 3439.19,-88 3429.19,-84.5 3429.19,-91.5"/>
</g>
<!-- leaky_relu13 -->
<g id="node36" class="node">
<title>leaky_relu13</title>
<polygon fill="LightSalmon" stroke="black" points="3607.73,-106 3529.45,-106 3529.45,-70 3607.73,-70 3607.73,-106"/>
<text text-anchor="middle" x="3568.59" y="-84.4" font-family="Times,serif" font-size="12.00">leaky_relu13</text>
</g>
<!-- conv15&#45;&gt;leaky_relu13 -->
<g id="edge40" class="edge">
<title>conv15&#45;&gt;leaky_relu13</title>
<path fill="none" stroke="black" d="M3493.36,-88C3501.21,-88 3510.08,-88 3518.9,-88"/>
<polygon fill="black" stroke="black" points="3519.15,-91.5 3529.15,-88 3519.15,-84.5 3519.15,-91.5"/>
</g>
<!-- conv16 -->
<g id="node37" class="node">
<title>conv16</title>
<polygon fill="White" stroke="black" points="3697.91,-106 3643.91,-106 3643.91,-70 3697.91,-70 3697.91,-106"/>
<text text-anchor="middle" x="3670.91" y="-84.4" font-family="Times,serif" font-size="12.00">conv16</text>
</g>
<!-- leaky_relu13&#45;&gt;conv16 -->
<g id="edge41" class="edge">
<title>leaky_relu13&#45;&gt;conv16</title>
<path fill="none" stroke="black" d="M3607.8,-88C3616.21,-88 3625.1,-88 3633.44,-88"/>
<polygon fill="black" stroke="black" points="3633.63,-91.5 3643.63,-88 3633.63,-84.5 3633.63,-91.5"/>
</g>
<!-- leaky_relu14 -->
<g id="node38" class="node">
<title>leaky_relu14</title>
<polygon fill="LightSalmon" stroke="black" points="3812.37,-106 3734.09,-106 3734.09,-70 3812.37,-70 3812.37,-106"/>
<text text-anchor="middle" x="3773.23" y="-84.4" font-family="Times,serif" font-size="12.00">leaky_relu14</text>
</g>
<!-- conv16&#45;&gt;leaky_relu14 -->
<g id="edge42" class="edge">
<title>conv16&#45;&gt;leaky_relu14</title>
<path fill="none" stroke="black" d="M3698.01,-88C3705.85,-88 3714.73,-88 3723.54,-88"/>
<polygon fill="black" stroke="black" points="3723.79,-91.5 3733.79,-88 3723.79,-84.5 3723.79,-91.5"/>
</g>
<!-- upsampling3 -->
<g id="node39" class="node">
<title>upsampling3</title>
<polygon fill="#bfbfbf" stroke="black" points="3926.55,-106 3848.55,-106 3848.55,-70 3926.55,-70 3926.55,-106"/>
<text text-anchor="middle" x="3887.55" y="-84.4" font-family="Times,serif" font-size="12.00">upsampling3</text>
</g>
<!-- leaky_relu14&#45;&gt;upsampling3 -->
<g id="edge43" class="edge">
<title>leaky_relu14&#45;&gt;upsampling3</title>
<path fill="none" stroke="black" d="M3812.57,-88C3820.79,-88 3829.59,-88 3838.13,-88"/>
<polygon fill="black" stroke="black" points="3838.38,-91.5 3848.38,-88 3838.38,-84.5 3838.38,-91.5"/>
</g>
<!-- conv17 -->
<g id="node40" class="node">
<title>conv17</title>
<polygon fill="White" stroke="black" points="4016.55,-106 3962.55,-106 3962.55,-70 4016.55,-70 4016.55,-106"/>
<text text-anchor="middle" x="3989.55" y="-84.4" font-family="Times,serif" font-size="12.00">conv17</text>
</g>
<!-- upsampling3&#45;&gt;conv17 -->
<g id="edge44" class="edge">
<title>upsampling3&#45;&gt;conv17</title>
<path fill="none" stroke="black" d="M3926.64,-88C3935.03,-88 3943.88,-88 3952.19,-88"/>
<polygon fill="black" stroke="black" points="3952.35,-91.5 3962.35,-88 3952.35,-84.5 3952.35,-91.5"/>
</g>
<!-- conv17&#45;&gt;concat4 -->
<g id="edge45" class="edge">
<title>conv17&#45;&gt;concat4</title>
<path fill="none" stroke="black" d="M4016.95,-75.4C4025.21,-71.46 4034.45,-67.05 4043.22,-62.86"/>
<polygon fill="black" stroke="black" points="4044.95,-65.91 4052.47,-58.45 4041.94,-59.6 4044.95,-65.91"/>
</g>
<!-- conv18 -->
<g id="node42" class="node">
<title>conv18</title>
<polygon fill="White" stroke="black" points="4196.55,-64 4142.55,-64 4142.55,-28 4196.55,-28 4196.55,-64"/>
<text text-anchor="middle" x="4169.55" y="-42.4" font-family="Times,serif" font-size="12.00">conv18</text>
</g>
<!-- concat4&#45;&gt;conv18 -->
<g id="edge46" class="edge">
<title>concat4&#45;&gt;conv18</title>
<path fill="none" stroke="black" d="M4106.95,-46C4114.94,-46 4123.86,-46 4132.37,-46"/>
<polygon fill="black" stroke="black" points="4132.47,-49.5 4142.47,-46 4132.47,-42.5 4132.47,-49.5"/>
</g>
<!-- leaky_relu15 -->
<g id="node43" class="node">
<title>leaky_relu15</title>
<polygon fill="LightSalmon" stroke="black" points="4311.02,-64 4232.73,-64 4232.73,-28 4311.02,-28 4311.02,-64"/>
<text text-anchor="middle" x="4271.87" y="-42.4" font-family="Times,serif" font-size="12.00">leaky_relu15</text>
</g>
<!-- conv18&#45;&gt;leaky_relu15 -->
<g id="edge47" class="edge">
<title>conv18&#45;&gt;leaky_relu15</title>
<path fill="none" stroke="black" d="M4196.65,-46C4204.49,-46 4213.37,-46 4222.18,-46"/>
<polygon fill="black" stroke="black" points="4222.43,-49.5 4232.43,-46 4222.43,-42.5 4222.43,-49.5"/>
</g>
<!-- conv19 -->
<g id="node44" class="node">
<title>conv19</title>
<polygon fill="White" stroke="black" points="4401.19,-64 4347.19,-64 4347.19,-28 4401.19,-28 4401.19,-64"/>
<text text-anchor="middle" x="4374.19" y="-42.4" font-family="Times,serif" font-size="12.00">conv19</text>
</g>
<!-- leaky_relu15&#45;&gt;conv19 -->
<g id="edge48" class="edge">
<title>leaky_relu15&#45;&gt;conv19</title>
<path fill="none" stroke="black" d="M4311.09,-46C4319.5,-46 4328.38,-46 4336.72,-46"/>
<polygon fill="black" stroke="black" points="4336.91,-49.5 4346.91,-46 4336.91,-42.5 4336.91,-49.5"/>
</g>
<!-- leaky_relu16 -->
<g id="node45" class="node">
<title>leaky_relu16</title>
<polygon fill="LightSalmon" stroke="black" points="4515.66,-64 4437.37,-64 4437.37,-28 4515.66,-28 4515.66,-64"/>
<text text-anchor="middle" x="4476.51" y="-42.4" font-family="Times,serif" font-size="12.00">leaky_relu16</text>
</g>
<!-- conv19&#45;&gt;leaky_relu16 -->
<g id="edge49" class="edge">
<title>conv19&#45;&gt;leaky_relu16</title>
<path fill="none" stroke="black" d="M4401.29,-46C4409.13,-46 4418.01,-46 4426.82,-46"/>
<polygon fill="black" stroke="black" points="4427.08,-49.5 4437.08,-46 4427.08,-42.5 4427.08,-49.5"/>
</g>
<!-- upsampling4 -->
<g id="node46" class="node">
<title>upsampling4</title>
<polygon fill="#bfbfbf" stroke="black" points="4629.83,-64 4551.84,-64 4551.84,-28 4629.83,-28 4629.83,-64"/>
<text text-anchor="middle" x="4590.83" y="-42.4" font-family="Times,serif" font-size="12.00">upsampling4</text>
</g>
<!-- leaky_relu16&#45;&gt;upsampling4 -->
<g id="edge50" class="edge">
<title>leaky_relu16&#45;&gt;upsampling4</title>
<path fill="none" stroke="black" d="M4515.85,-46C4524.08,-46 4532.87,-46 4541.42,-46"/>
<polygon fill="black" stroke="black" points="4541.67,-49.5 4551.67,-46 4541.67,-42.5 4541.67,-49.5"/>
</g>
<!-- conv20 -->
<g id="node47" class="node">
<title>conv20</title>
<polygon fill="White" stroke="black" points="4719.83,-64 4665.83,-64 4665.83,-28 4719.83,-28 4719.83,-64"/>
<text text-anchor="middle" x="4692.83" y="-42.4" font-family="Times,serif" font-size="12.00">conv20</text>
</g>
<!-- upsampling4&#45;&gt;conv20 -->
<g id="edge51" class="edge">
<title>upsampling4&#45;&gt;conv20</title>
<path fill="none" stroke="black" d="M4629.93,-46C4638.31,-46 4647.17,-46 4655.48,-46"/>
<polygon fill="black" stroke="black" points="4655.64,-49.5 4665.64,-46 4655.64,-42.5 4655.64,-49.5"/>
</g>
<!-- conv20&#45;&gt;concat5 -->
<g id="edge52" class="edge">
<title>conv20&#45;&gt;concat5</title>
<path fill="none" stroke="black" d="M4720.24,-39.1C4728.32,-36.99 4737.34,-34.63 4745.94,-32.38"/>
<polygon fill="black" stroke="black" points="4746.96,-35.73 4755.75,-29.82 4745.19,-28.96 4746.96,-35.73"/>
</g>
<!-- conv21 -->
<g id="node49" class="node">
<title>conv21</title>
<polygon fill="White" stroke="black" points="4899.83,-41 4845.83,-41 4845.83,-5 4899.83,-5 4899.83,-41"/>
<text text-anchor="middle" x="4872.83" y="-19.4" font-family="Times,serif" font-size="12.00">conv21</text>
</g>
<!-- concat5&#45;&gt;conv21 -->
<g id="edge53" class="edge">
<title>concat5&#45;&gt;conv21</title>
<path fill="none" stroke="black" d="M4810.24,-23C4818.23,-23 4827.14,-23 4835.66,-23"/>
<polygon fill="black" stroke="black" points="4835.75,-26.5 4845.75,-23 4835.75,-19.5 4835.75,-26.5"/>
</g>
<!-- leaky_relu17 -->
<g id="node50" class="node">
<title>leaky_relu17</title>
<polygon fill="LightSalmon" stroke="black" points="5014.3,-41 4936.01,-41 4936.01,-5 5014.3,-5 5014.3,-41"/>
<text text-anchor="middle" x="4975.16" y="-19.4" font-family="Times,serif" font-size="12.00">leaky_relu17</text>
</g>
<!-- conv21&#45;&gt;leaky_relu17 -->
<g id="edge54" class="edge">
<title>conv21&#45;&gt;leaky_relu17</title>
<path fill="none" stroke="black" d="M4899.93,-23C4907.78,-23 4916.65,-23 4925.46,-23"/>
<polygon fill="black" stroke="black" points="4925.72,-26.5 4935.72,-23 4925.72,-19.5 4925.72,-26.5"/>
</g>
<!-- conv22 -->
<g id="node51" class="node">
<title>conv22</title>
<polygon fill="White" stroke="black" points="5104.48,-41 5050.48,-41 5050.48,-5 5104.48,-5 5104.48,-41"/>
<text text-anchor="middle" x="5077.48" y="-19.4" font-family="Times,serif" font-size="12.00">conv22</text>
</g>
<!-- leaky_relu17&#45;&gt;conv22 -->
<g id="edge55" class="edge">
<title>leaky_relu17&#45;&gt;conv22</title>
<path fill="none" stroke="black" d="M5014.37,-23C5022.78,-23 5031.66,-23 5040,-23"/>
<polygon fill="black" stroke="black" points="5040.2,-26.5 5050.2,-23 5040.2,-19.5 5040.2,-26.5"/>
</g>
<!-- leaky_relu18 -->
<g id="node52" class="node">
<title>leaky_relu18</title>
<polygon fill="LightSalmon" stroke="black" points="5218.94,-41 5140.65,-41 5140.65,-5 5218.94,-5 5218.94,-41"/>
<text text-anchor="middle" x="5179.8" y="-19.4" font-family="Times,serif" font-size="12.00">leaky_relu18</text>
</g>
<!-- conv22&#45;&gt;leaky_relu18 -->
<g id="edge56" class="edge">
<title>conv22&#45;&gt;leaky_relu18</title>
<path fill="none" stroke="black" d="M5104.57,-23C5112.42,-23 5121.29,-23 5130.11,-23"/>
<polygon fill="black" stroke="black" points="5130.36,-26.5 5140.36,-23 5130.36,-19.5 5130.36,-26.5"/>
</g>
<!-- conv23 -->
<g id="node53" class="node">
<title>conv23</title>
<polygon fill="White" stroke="black" points="5309.12,-41 5255.12,-41 5255.12,-5 5309.12,-5 5309.12,-41"/>
<text text-anchor="middle" x="5282.12" y="-19.4" font-family="Times,serif" font-size="12.00">conv23</text>
</g>
<!-- leaky_relu18&#45;&gt;conv23 -->
<g id="edge57" class="edge">
<title>leaky_relu18&#45;&gt;conv23</title>
<path fill="none" stroke="black" d="M5219.01,-23C5227.42,-23 5236.31,-23 5244.65,-23"/>
<polygon fill="black" stroke="black" points="5244.84,-26.5 5254.84,-23 5244.84,-19.5 5244.84,-26.5"/>
</g>
<!-- sigmoid19 -->
<g id="node55" class="node">
<title>sigmoid19</title>
<polygon fill="LightBlue" stroke="black" points="5411.63,-41 5345.28,-41 5345.28,-5 5411.63,-5 5411.63,-41"/>
<text text-anchor="middle" x="5378.46" y="-19.4" font-family="Times,serif" font-size="12.00">sigmoid19</text>
</g>
<!-- conv23&#45;&gt;sigmoid19 -->
<g id="edge58" class="edge">
<title>conv23&#45;&gt;sigmoid19</title>
<path fill="none" stroke="black" d="M5309.15,-23C5317.14,-23 5326.16,-23 5334.96,-23"/>
<polygon fill="black" stroke="black" points="5335.12,-26.5 5345.12,-23 5335.12,-19.5 5335.12,-26.5"/>
</g>
<!-- input3 -->
<g id="node54" class="node">
<title>input3</title>
<polygon fill="LightBlue" stroke="black" points="54,-41 0,-41 0,-5 54,-5 54,-41"/>
<text text-anchor="middle" x="27" y="-19.4" font-family="Times,serif" font-size="12.00">input3</text>
</g>
<!-- input3&#45;&gt;conv1 -->
<g id="edge1" class="edge">
<title>input3&#45;&gt;conv1</title>
<path fill="none" stroke="black" d="M54.4,-23C62.39,-23 71.31,-23 79.82,-23"/>
<polygon fill="black" stroke="black" points="79.92,-26.5 89.92,-23 79.92,-19.5 79.92,-26.5"/>
</g>
</g>
</svg>
