<?xml version="1.0" encoding="UTF-8" standalone="no"?>
<!DOCTYPE svg PUBLIC "-//W3C//DTD SVG 1.1//EN"
 "http://www.w3.org/Graphics/SVG/1.1/DTD/svg11.dtd">
<!-- Generated by graphviz version 2.43.0 (0)
 -->
<!-- Title: Model Pages: 1 -->
<svg width="1785pt" height="44pt"
 viewBox="0.00 0.00 1785.24 44.00" xmlns="http://www.w3.org/2000/svg" xmlns:xlink="http://www.w3.org/1999/xlink">
<g id="graph0" class="graph" transform="scale(1 1) rotate(0) translate(4 40)">
<title>Model</title>
<polygon fill="white" stroke="transparent" points="-4,4 -4,-40 1781.24,-40 1781.24,4 -4,4"/>
<!-- crop_random1 -->
<g id="node1" class="node">
<title>crop_random1</title>
<polygon fill="White" stroke="black" points="175.97,-36 90.01,-36 90.01,0 175.97,0 175.97,-36"/>
<text text-anchor="middle" x="132.99" y="-14.4" font-family="Times,serif" font-size="12.00">crop_random1</text>
</g>
<!-- crop_scale1 -->
<g id="node2" class="node">
<title>crop_scale1</title>
<polygon fill="White" stroke="black" points="285.44,-36 211.83,-36 211.83,0 285.44,0 285.44,-36"/>
<text text-anchor="middle" x="248.63" y="-14.4" font-family="Times,serif" font-size="12.00">crop_scale1</text>
</g>
<!-- crop_random1&#45;&gt;crop_scale1 -->
<g id="edge2" class="edge">
<title>crop_random1&#45;&gt;crop_scale1</title>
<path fill="none" stroke="black" d="M175.98,-18C184.34,-18 193.16,-18 201.65,-18"/>
<polygon fill="black" stroke="black" points="201.78,-21.5 211.78,-18 201.78,-14.5 201.78,-21.5"/>
</g>
<!-- cutout_random1 -->
<g id="node3" class="node">
<title>cutout_random1</title>
<polygon fill="White" stroke="black" points="415.76,-36 321.46,-36 321.46,0 415.76,0 415.76,-36"/>
<text text-anchor="middle" x="368.61" y="-14.4" font-family="Times,serif" font-size="12.00">cutout_random1</text>
</g>
<!-- crop_scale1&#45;&gt;cutout_random1 -->
<g id="edge3" class="edge">
<title>crop_scale1&#45;&gt;cutout_random1</title>
<path fill="none" stroke="black" d="M285.35,-18C293.44,-18 302.23,-18 310.95,-18"/>
<polygon fill="black" stroke="black" points="311.11,-21.5 321.11,-18 311.11,-14.5 311.11,-21.5"/>
</g>
<!-- conv1 -->
<g id="node4" class="node">
<title>conv1</title>
<polygon fill="White" stroke="black" points="505.93,-36 451.93,-36 451.93,0 505.93,0 505.93,-36"/>
<text text-anchor="middle" x="478.93" y="-14.4" font-family="Times,serif" font-size="12.00">conv1</text>
</g>
<!-- cutout_random1&#45;&gt;conv1 -->
<g id="edge4" class="edge">
<title>cutout_random1&#45;&gt;conv1</title>
<path fill="none" stroke="black" d="M415.86,-18C424.51,-18 433.44,-18 441.74,-18"/>
<polygon fill="black" stroke="black" points="441.84,-21.5 451.84,-18 441.84,-14.5 441.84,-21.5"/>
</g>
<!-- relu1 -->
<g id="node5" class="node">
<title>relu1</title>
<polygon fill="LightSalmon" stroke="black" points="595.93,-36 541.93,-36 541.93,0 595.93,0 595.93,-36"/>
<text text-anchor="middle" x="568.93" y="-14.4" font-family="Times,serif" font-size="12.00">relu1</text>
</g>
<!-- conv1&#45;&gt;relu1 -->
<g id="edge5" class="edge">
<title>conv1&#45;&gt;relu1</title>
<path fill="none" stroke="black" d="M506.34,-18C514.33,-18 523.24,-18 531.76,-18"/>
<polygon fill="black" stroke="black" points="531.85,-21.5 541.85,-18 531.85,-14.5 531.85,-21.5"/>
</g>
<!-- pool1 -->
<g id="node6" class="node">
<title>pool1</title>
<polygon fill="#bfbfbf" stroke="black" points="685.93,-36 631.93,-36 631.93,0 685.93,0 685.93,-36"/>
<text text-anchor="middle" x="658.93" y="-14.4" font-family="Times,serif" font-size="12.00">pool1</text>
</g>
<!-- relu1&#45;&gt;pool1 -->
<g id="edge6" class="edge">
<title>relu1&#45;&gt;pool1</title>
<path fill="none" stroke="black" d="M596.34,-18C604.33,-18 613.24,-18 621.76,-18"/>
<polygon fill="black" stroke="black" points="621.85,-21.5 631.85,-18 621.85,-14.5 621.85,-21.5"/>
</g>
<!-- conv2 -->
<g id="node7" class="node">
<title>conv2</title>
<polygon fill="White" stroke="black" points="775.93,-36 721.93,-36 721.93,0 775.93,0 775.93,-36"/>
<text text-anchor="middle" x="748.93" y="-14.4" font-family="Times,serif" font-size="12.00">conv2</text>
</g>
<!-- pool1&#45;&gt;conv2 -->
<g id="edge7" class="edge">
<title>pool1&#45;&gt;conv2</title>
<path fill="none" stroke="black" d="M686.34,-18C694.33,-18 703.24,-18 711.76,-18"/>
<polygon fill="black" stroke="black" points="711.85,-21.5 721.85,-18 711.85,-14.5 711.85,-21.5"/>
</g>
<!-- relu2 -->
<g id="node8" class="node">
<title>relu2</title>
<polygon fill="LightSalmon" stroke="black" points="865.93,-36 811.93,-36 811.93,0 865.93,0 865.93,-36"/>
<text text-anchor="middle" x="838.93" y="-14.4" font-family="Times,serif" font-size="12.00">relu2</text>
</g>
<!-- conv2&#45;&gt;relu2 -->
<g id="edge8" class="edge">
<title>conv2&#45;&gt;relu2</title>
<path fill="none" stroke="black" d="M776.34,-18C784.33,-18 793.24,-18 801.76,-18"/>
<polygon fill="black" stroke="black" points="801.85,-21.5 811.85,-18 801.85,-14.5 801.85,-21.5"/>
</g>
<!-- pool2 -->
<g id="node9" class="node">
<title>pool2</title>
<polygon fill="#bfbfbf" stroke="black" points="955.93,-36 901.93,-36 901.93,0 955.93,0 955.93,-36"/>
<text text-anchor="middle" x="928.93" y="-14.4" font-family="Times,serif" font-size="12.00">pool2</text>
</g>
<!-- relu2&#45;&gt;pool2 -->
<g id="edge9" class="edge">
<title>relu2&#45;&gt;pool2</title>
<path fill="none" stroke="black" d="M866.34,-18C874.33,-18 883.24,-18 891.76,-18"/>
<polygon fill="black" stroke="black" points="891.85,-21.5 901.85,-18 891.85,-14.5 891.85,-21.5"/>
</g>
<!-- conv3 -->
<g id="node10" class="node">
<title>conv3</title>
<polygon fill="White" stroke="black" points="1045.93,-36 991.93,-36 991.93,0 1045.93,0 1045.93,-36"/>
<text text-anchor="middle" x="1018.93" y="-14.4" font-family="Times,serif" font-size="12.00">conv3</text>
</g>
<!-- pool2&#45;&gt;conv3 -->
<g id="edge10" class="edge">
<title>pool2&#45;&gt;conv3</title>
<path fill="none" stroke="black" d="M956.34,-18C964.33,-18 973.24,-18 981.76,-18"/>
<polygon fill="black" stroke="black" points="981.85,-21.5 991.85,-18 981.85,-14.5 981.85,-21.5"/>
</g>
<!-- relu3 -->
<g id="node11" class="node">
<title>relu3</title>
<polygon fill="LightSalmon" stroke="black" points="1135.93,-36 1081.93,-36 1081.93,0 1135.93,0 1135.93,-36"/>
<text text-anchor="middle" x="1108.93" y="-14.4" font-family="Times,serif" font-size="12.00">relu3</text>
</g>
<!-- conv3&#45;&gt;relu3 -->
<g id="edge11" class="edge">
<title>conv3&#45;&gt;relu3</title>
<path fill="none" stroke="black" d="M1046.34,-18C1054.33,-18 1063.24,-18 1071.76,-18"/>
<polygon fill="black" stroke="black" points="1071.85,-21.5 1081.85,-18 1071.85,-14.5 1071.85,-21.5"/>
</g>
<!-- pool3 -->
<g id="node12" class="node">
<title>pool3</title>
<polygon fill="#bfbfbf" stroke="black" points="1225.93,-36 1171.93,-36 1171.93,0 1225.93,0 1225.93,-36"/>
<text text-anchor="middle" x="1198.93" y="-14.4" font-family="Times,serif" font-size="12.00">pool3</text>
</g>
<!-- relu3&#45;&gt;pool3 -->
<g id="edge12" class="edge">
<title>relu3&#45;&gt;pool3</title>
<path fill="none" stroke="black" d="M1136.34,-18C1144.33,-18 1153.24,-18 1161.76,-18"/>
<polygon fill="black" stroke="black" points="1161.85,-21.5 1171.85,-18 1161.85,-14.5 1161.85,-21.5"/>
</g>
<!-- gpool -->
<g id="node13" class="node">
<title>gpool</title>
<polygon fill="#bfbfbf" stroke="black" points="1315.93,-36 1261.93,-36 1261.93,0 1315.93,0 1315.93,-36"/>
<text text-anchor="middle" x="1288.93" y="-14.4" font-family="Times,serif" font-size="12.00">gpool</text>
</g>
<!-- pool3&#45;&gt;gpool -->
<g id="edge13" class="edge">
<title>pool3&#45;&gt;gpool</title>
<path fill="none" stroke="black" d="M1226.34,-18C1234.33,-18 1243.24,-18 1251.76,-18"/>
<polygon fill="black" stroke="black" points="1251.85,-21.5 1261.85,-18 1251.85,-14.5 1251.85,-21.5"/>
</g>
<!-- reshape1 -->
<g id="node14" class="node">
<title>reshape1</title>
<polygon fill="#bfbfbf" stroke="black" points="1410.4,-36 1352.11,-36 1352.11,0 1410.4,0 1410.4,-36"/>
<text text-anchor="middle" x="1381.26" y="-14.4" font-family="Times,serif" font-size="12.00">reshape1</text>
</g>
<!-- gpool&#45;&gt;reshape1 -->
<g id="edge14" class="edge">
<title>gpool&#45;&gt;reshape1</title>
<path fill="none" stroke="black" d="M1316.06,-18C1324.15,-18 1333.23,-18 1341.97,-18"/>
<polygon fill="black" stroke="black" points="1341.98,-21.5 1351.98,-18 1341.98,-14.5 1341.98,-21.5"/>
</g>
<!-- dense1 -->
<g id="node15" class="node">
<title>dense1</title>
<polygon fill="White" stroke="black" points="1500.58,-36 1446.58,-36 1446.58,0 1500.58,0 1500.58,-36"/>
<text text-anchor="middle" x="1473.58" y="-14.4" font-family="Times,serif" font-size="12.00">dense1</text>
</g>
<!-- reshape1&#45;&gt;dense1 -->
<g id="edge15" class="edge">
<title>reshape1&#45;&gt;dense1</title>
<path fill="none" stroke="black" d="M1410.83,-18C1418.92,-18 1427.82,-18 1436.3,-18"/>
<polygon fill="black" stroke="black" points="1436.33,-21.5 1446.33,-18 1436.33,-14.5 1436.33,-21.5"/>
</g>
<!-- relu4 -->
<g id="node16" class="node">
<title>relu4</title>
<polygon fill="LightSalmon" stroke="black" points="1590.58,-36 1536.58,-36 1536.58,0 1590.58,0 1590.58,-36"/>
<text text-anchor="middle" x="1563.58" y="-14.4" font-family="Times,serif" font-size="12.00">relu4</text>
</g>
<!-- dense1&#45;&gt;relu4 -->
<g id="edge16" class="edge">
<title>dense1&#45;&gt;relu4</title>
<path fill="none" stroke="black" d="M1500.98,-18C1508.97,-18 1517.89,-18 1526.4,-18"/>
<polygon fill="black" stroke="black" points="1526.5,-21.5 1536.5,-18 1526.5,-14.5 1526.5,-21.5"/>
</g>
<!-- dense2 -->
<g id="node17" class="node">
<title>dense2</title>
<polygon fill="White" stroke="black" points="1680.58,-36 1626.58,-36 1626.58,0 1680.58,0 1680.58,-36"/>
<text text-anchor="middle" x="1653.58" y="-14.4" font-family="Times,serif" font-size="12.00">dense2</text>
</g>
<!-- relu4&#45;&gt;dense2 -->
<g id="edge17" class="edge">
<title>relu4&#45;&gt;dense2</title>
<path fill="none" stroke="black" d="M1590.98,-18C1598.97,-18 1607.89,-18 1616.4,-18"/>
<polygon fill="black" stroke="black" points="1616.5,-21.5 1626.5,-18 1616.5,-14.5 1616.5,-21.5"/>
</g>
<!-- softmax5 -->
<g id="node19" class="node">
<title>softmax5</title>
<polygon fill="LightBlue" stroke="black" points="1777.07,-36 1716.75,-36 1716.75,0 1777.07,0 1777.07,-36"/>
<text text-anchor="middle" x="1746.91" y="-14.4" font-family="Times,serif" font-size="12.00">softmax5</text>
</g>
<!-- dense2&#45;&gt;softmax5 -->
<g id="edge18" class="edge">
<title>dense2&#45;&gt;softmax5</title>
<path fill="none" stroke="black" d="M1680.99,-18C1688.93,-18 1697.83,-18 1706.42,-18"/>
<polygon fill="black" stroke="black" points="1706.67,-21.5 1716.67,-18 1706.67,-14.5 1706.67,-21.5"/>
</g>
<!-- input1 -->
<g id="node18" class="node">
<title>input1</title>
<polygon fill="LightBlue" stroke="black" points="54,-36 0,-36 0,0 54,0 54,-36"/>
<text text-anchor="middle" x="27" y="-14.4" font-family="Times,serif" font-size="12.00">input1</text>
</g>
<!-- input1&#45;&gt;crop_random1 -->
<g id="edge1" class="edge">
<title>input1&#45;&gt;crop_random1</title>
<path fill="none" stroke="black" d="M54.24,-18C62.11,-18 71.03,-18 79.95,-18"/>
<polygon fill="black" stroke="black" points="79.97,-21.5 89.97,-18 79.97,-14.5 79.97,-21.5"/>
</g>
</g>
</svg>
