<?xml version="1.0" encoding="UTF-8" standalone="no"?>
<!-- Generated by graphviz version 2.43.0 (0)
 -->
<!-- Title: Model Pages: 1 -->
<svg xmlns="http://www.w3.org/2000/svg" xmlns:xlink="http://www.w3.org/1999/xlink" width="845pt" height="44pt" viewBox="0.00 0.00 844.59 44.00">
    <g id="graph0" class="graph" transform="scale(1 1) rotate(0) translate(4 40)">
        <title>Model</title>
        <polygon fill="white" stroke="transparent" points="-4,4 -4,-40 840.59,-40 840.59,4 -4,4"></polygon>
        <!-- dense1 -->
        <g id="node1" class="node">
            <title>dense1</title>
            <polygon fill="White" stroke="black" points="144,-36 90,-36 90,0 144,0 144,-36"></polygon>
            <text text-anchor="middle" x="117" y="-14.4" font-family="Times,serif" font-size="12.00">dense1</text>
        </g>
        <!-- leaky_relu1 -->
        <g id="node2" class="node">
            <title>leaky_relu1</title>
            <polygon fill="LightSalmon" stroke="black" points="252.46,-36 180.18,-36 180.18,0 252.46,0 252.46,-36"></polygon>
            <text text-anchor="middle" x="216.32" y="-14.4" font-family="Times,serif" font-size="12.00">leaky_relu1</text>
        </g>
        <!-- dense1->leaky_relu1 -->
        <g id="edge2" class="edge">
            <title>dense1->leaky_relu1</title>
            <path fill="none" stroke="black" d="M144.08,-18C152.01,-18 160.97,-18 169.79,-18"></path>
            <polygon fill="black" stroke="black" points="170.02,-21.5 180.02,-18 170.02,-14.5 170.02,-21.5"></polygon>
        </g>
        <!-- dense2 -->
        <g id="node3" class="node">
            <title>dense2</title>
            <polygon fill="White" stroke="black" points="342.64,-36 288.64,-36 288.64,0 342.64,0 342.64,-36"></polygon>
            <text text-anchor="middle" x="315.64" y="-14.4" font-family="Times,serif" font-size="12.00">dense2</text>
        </g>
        <!-- leaky_relu1->dense2 -->
        <g id="edge3" class="edge">
            <title>leaky_relu1->dense2</title>
            <path fill="none" stroke="black" d="M252.73,-18C261.06,-18 269.95,-18 278.32,-18"></path>
            <polygon fill="black" stroke="black" points="278.57,-21.5 288.57,-18 278.57,-14.5 278.57,-21.5"></polygon>
        </g>
        <!-- leaky_relu2 -->
        <g id="node4" class="node">
            <title>leaky_relu2</title>
            <polygon fill="LightSalmon" stroke="black" points="451.11,-36 378.82,-36 378.82,0 451.11,0 451.11,-36"></polygon>
            <text text-anchor="middle" x="414.96" y="-14.4" font-family="Times,serif" font-size="12.00">leaky_relu2</text>
        </g>
        <!-- dense2->leaky_relu2 -->
        <g id="edge4" class="edge">
            <title>dense2->leaky_relu2</title>
            <path fill="none" stroke="black" d="M342.72,-18C350.65,-18 359.62,-18 368.44,-18"></path>
            <polygon fill="black" stroke="black" points="368.66,-21.5 378.66,-18 368.66,-14.5 368.66,-21.5"></polygon>
        </g>
        <!-- dense3 -->
        <g id="node5" class="node">
            <title>dense3</title>
            <polygon fill="White" stroke="black" points="541.29,-36 487.29,-36 487.29,0 541.29,0 541.29,-36"></polygon>
            <text text-anchor="middle" x="514.29" y="-14.4" font-family="Times,serif" font-size="12.00">dense3</text>
        </g>
        <!-- leaky_relu2->dense3 -->
        <g id="edge5" class="edge">
            <title>leaky_relu2->dense3</title>
            <path fill="none" stroke="black" d="M451.37,-18C459.71,-18 468.6,-18 476.97,-18"></path>
            <polygon fill="black" stroke="black" points="477.21,-21.5 487.21,-18 477.21,-14.5 477.21,-21.5"></polygon>
        </g>
        <!-- leaky_relu3 -->
        <g id="node6" class="node">
            <title>leaky_relu3</title>
            <polygon fill="LightSalmon" stroke="black" points="649.75,-36 577.46,-36 577.46,0 649.75,0 649.75,-36"></polygon>
            <text text-anchor="middle" x="613.61" y="-14.4" font-family="Times,serif" font-size="12.00">leaky_relu3</text>
        </g>
        <!-- dense3->leaky_relu3 -->
        <g id="edge6" class="edge">
            <title>dense3->leaky_relu3</title>
            <path fill="none" stroke="black" d="M541.37,-18C549.3,-18 558.26,-18 567.08,-18"></path>
            <polygon fill="black" stroke="black" points="567.3,-21.5 577.3,-18 567.3,-14.5 567.3,-21.5"></polygon>
        </g>
        <!-- dense4 -->
        <g id="node7" class="node">
            <title>dense4</title>
            <polygon fill="White" stroke="black" points="739.93,-36 685.93,-36 685.93,0 739.93,0 739.93,-36"></polygon>
            <text text-anchor="middle" x="712.93" y="-14.4" font-family="Times,serif" font-size="12.00">dense4</text>
        </g>
        <!-- leaky_relu3->dense4 -->
        <g id="edge7" class="edge">
            <title>leaky_relu3->dense4</title>
            <path fill="none" stroke="black" d="M650.02,-18C658.35,-18 667.24,-18 675.61,-18"></path>
            <polygon fill="black" stroke="black" points="675.85,-21.5 685.85,-18 675.85,-14.5 675.85,-21.5"></polygon>
        </g>
        <!-- softmax4 -->
        <g id="node9" class="node">
            <title>softmax4</title>
            <polygon fill="LightBlue" stroke="black" points="836.42,-36 776.1,-36 776.1,0 836.42,0 836.42,-36"></polygon>
            <text text-anchor="middle" x="806.26" y="-14.4" font-family="Times,serif" font-size="12.00">softmax4</text>
        </g>
        <!-- dense4->softmax4 -->
        <g id="edge8" class="edge">
            <title>dense4->softmax4</title>
            <path fill="none" stroke="black" d="M740.34,-18C748.28,-18 757.17,-18 765.77,-18"></path>
            <polygon fill="black" stroke="black" points="766.02,-21.5 776.02,-18 766.02,-14.5 766.02,-21.5"></polygon>
        </g>
        <!-- input1 -->
        <g id="node8" class="node">
            <title>input1</title>
            <polygon fill="LightBlue" stroke="black" points="54,-36 0,-36 0,0 54,0 54,-36"></polygon>
            <text text-anchor="middle" x="27" y="-14.4" font-family="Times,serif" font-size="12.00">input1</text>
        </g>
        <!-- input1->dense1 -->
        <g id="edge1" class="edge">
            <title>input1->dense1</title>
            <path fill="none" stroke="black" d="M54.4,-18C62.39,-18 71.31,-18 79.82,-18"></path>
            <polygon fill="black" stroke="black" points="79.92,-21.5 89.92,-18 79.92,-14.5 79.92,-21.5"></polygon>
        </g>
    </g>
</svg>
